<?xml version="1.0" encoding="UTF-8" standalone="no"?><svg xmlns="http://www.w3.org/2000/svg" xmlns:xlink="http://www.w3.org/1999/xlink" contentScriptType="application/ecmascript" contentStyleType="text/css" height="2166px" preserveAspectRatio="none" style="width:2731px;height:2166px;background:#FFFFFF;" version="1.1" viewBox="0 0 2731 2166" width="2731px" zoomAndPan="magnify"><defs><filter height="300%" id="f1dbru50p2a4wc" width="300%" x="-1" y="-1"><feGaussianBlur result="blurOut" stdDeviation="2.0"/><feColorMatrix in="blurOut" result="blurOut2" type="matrix" values="0 0 0 0 0 0 0 0 0 0 0 0 0 0 0 0 0 0 .4 0"/><feOffset dx="4.0" dy="4.0" in="blurOut2" result="blurOut3"/><feBlend in="SourceGraphic" in2="blurOut3" mode="normal"/></filter></defs><g><rect fill="#FFFFFF" filter="url(#f1dbru50p2a4wc)" height="2063.3828" style="stroke:#A80036;stroke-width:1.0;" width="10" x="100" y="50.2969"/><rect fill="#FFFFFF" filter="url(#f1dbru50p2a4wc)" height="205.6641" style="stroke:#A80036;stroke-width:1.0;" width="10" x="501" y="221.9609"/><rect fill="#FFFFFF" filter="url(#f1dbru50p2a4wc)" height="30" style="stroke:#A80036;stroke-width:1.0;" width="10" x="705" y="505.0234"/><rect fill="#FFFFFF" filter="url(#f1dbru50p2a4wc)" height="30" style="stroke:#A80036;stroke-width:1.0;" width="10" x="705" y="564.1563"/><rect fill="#FFFFFF" filter="url(#f1dbru50p2a4wc)" height="30" style="stroke:#A80036;stroke-width:1.0;" width="10" x="705" y="1302.0156"/><rect fill="#FFFFFF" filter="url(#f1dbru50p2a4wc)" height="649.5938" style="stroke:#A80036;stroke-width:1.0;" width="10" x="1023.5" y="623.2891"/><rect fill="#FFFFFF" filter="url(#f1dbru50p2a4wc)" height="30" style="stroke:#A80036;stroke-width:1.0;" width="10" x="1023.5" y="1375.9531"/><rect fill="#FFFFFF" filter="url(#f1dbru50p2a4wc)" height="649.5938" style="stroke:#A80036;stroke-width:1.0;" width="10" x="1023.5" y="1435.0859"/><rect fill="#FFFFFF" filter="url(#f1dbru50p2a4wc)" height="88.2656" style="stroke:#A80036;stroke-width:1.0;" width="10" x="1264" y="251.0938"/><rect fill="#FFFFFF" filter="url(#f1dbru50p2a4wc)" height="324.7969" style="stroke:#A80036;stroke-width:1.0;" width="10" x="1264" y="652.4219"/><rect fill="#FFFFFF" filter="url(#f1dbru50p2a4wc)" height="324.7969" style="stroke:#A80036;stroke-width:1.0;" width="10" x="1264" y="1464.2188"/><rect fill="#FFFFFF" filter="url(#f1dbru50p2a4wc)" height="59.1328" style="stroke:#A80036;stroke-width:1.0;" width="10" x="1435" y="280.2266"/><rect fill="#FFFFFF" filter="url(#f1dbru50p2a4wc)" height="295.6641" style="stroke:#A80036;stroke-width:1.0;" width="10" x="1435" y="681.5547"/><rect fill="#FFFFFF" filter="url(#f1dbru50p2a4wc)" height="295.6641" style="stroke:#A80036;stroke-width:1.0;" width="10" x="1435" y="1493.3516"/><rect fill="#FFFFFF" filter="url(#f1dbru50p2a4wc)" height="30" style="stroke:#A80036;stroke-width:1.0;" width="10" x="1680" y="1065.4844"/><rect fill="#FFFFFF" filter="url(#f1dbru50p2a4wc)" height="30" style="stroke:#A80036;stroke-width:1.0;" width="10" x="1680" y="1877.2813"/><rect fill="#FFFFFF" filter="url(#f1dbru50p2a4wc)" height="30" style="stroke:#A80036;stroke-width:1.0;" width="10" x="1760.5" y="1183.75"/><rect fill="#FFFFFF" filter="url(#f1dbru50p2a4wc)" height="30" style="stroke:#A80036;stroke-width:1.0;" width="10" x="1760.5" y="1995.5469"/><rect fill="#FFFFFF" filter="url(#f1dbru50p2a4wc)" height="30" style="stroke:#A80036;stroke-width:1.0;" width="10" x="1880.5" y="710.6875"/><rect fill="#FFFFFF" filter="url(#f1dbru50p2a4wc)" height="30" style="stroke:#A80036;stroke-width:1.0;" width="10" x="1880.5" y="1124.6172"/><rect fill="#FFFFFF" filter="url(#f1dbru50p2a4wc)" height="30" style="stroke:#A80036;stroke-width:1.0;" width="10" x="1880.5" y="1522.4844"/><rect fill="#FFFFFF" filter="url(#f1dbru50p2a4wc)" height="30" style="stroke:#A80036;stroke-width:1.0;" width="10" x="1880.5" y="1936.4141"/><rect fill="#FFFFFF" filter="url(#f1dbru50p2a4wc)" height="30" style="stroke:#A80036;stroke-width:1.0;" width="10" x="2040" y="769.8203"/><rect fill="#FFFFFF" filter="url(#f1dbru50p2a4wc)" height="30" style="stroke:#A80036;stroke-width:1.0;" width="10" x="2040" y="1242.8828"/><rect fill="#FFFFFF" filter="url(#f1dbru50p2a4wc)" height="30" style="stroke:#A80036;stroke-width:1.0;" width="10" x="2040" y="1581.6172"/><rect fill="#FFFFFF" filter="url(#f1dbru50p2a4wc)" height="30" style="stroke:#A80036;stroke-width:1.0;" width="10" x="2040" y="2054.6797"/><rect fill="#FFFFFF" filter="url(#f1dbru50p2a4wc)" height="30" style="stroke:#A80036;stroke-width:1.0;" width="10" x="2199.5" y="309.3594"/><rect fill="#FFFFFF" filter="url(#f1dbru50p2a4wc)" height="30" style="stroke:#A80036;stroke-width:1.0;" width="10" x="2199.5" y="368.4922"/><rect fill="#FFFFFF" filter="url(#f1dbru50p2a4wc)" height="30" style="stroke:#A80036;stroke-width:1.0;" width="10" x="2199.5" y="828.9531"/><rect fill="#FFFFFF" filter="url(#f1dbru50p2a4wc)" height="30" style="stroke:#A80036;stroke-width:1.0;" width="10" x="2199.5" y="1640.75"/><rect fill="#FFFFFF" filter="url(#f1dbru50p2a4wc)" height="30" style="stroke:#A80036;stroke-width:1.0;" width="10" x="2360" y="888.0859"/><rect fill="#FFFFFF" filter="url(#f1dbru50p2a4wc)" height="30" style="stroke:#A80036;stroke-width:1.0;" width="10" x="2360" y="1699.8828"/><rect fill="#FFFFFF" filter="url(#f1dbru50p2a4wc)" height="30" style="stroke:#A80036;stroke-width:1.0;" width="10" x="2530" y="947.2188"/><rect fill="#FFFFFF" filter="url(#f1dbru50p2a4wc)" height="30" style="stroke:#A80036;stroke-width:1.0;" width="10" x="2530" y="1006.3516"/><rect fill="#FFFFFF" filter="url(#f1dbru50p2a4wc)" height="30" style="stroke:#A80036;stroke-width:1.0;" width="10" x="2530" y="1759.0156"/><rect fill="#FFFFFF" filter="url(#f1dbru50p2a4wc)" height="30" style="stroke:#A80036;stroke-width:1.0;" width="10" x="2530" y="1818.1484"/><rect fill="#FFFFFF" filter="url(#f1dbru50p2a4wc)" height="1922.9844" style="stroke:#000000;stroke-width:2.0;" width="2640" x="10" y="183.6953"/><rect fill="#FFFFFF" filter="url(#f1dbru50p2a4wc)" height="1657.0547" style="stroke:#000000;stroke-width:2.0;" width="2620" x="20" y="442.625"/><rect fill="#FFFFFF" filter="url(#f1dbru50p2a4wc)" height="1625.9219" style="stroke:#000000;stroke-width:2.0;" width="2600" x="30" y="466.7578"/><rect fill="#FFFFFF" height="752.6641" style="stroke:none;stroke-width:1.0;" width="2600" x="30" y="1340.0156"/><line style="stroke:#A80036;stroke-width:1.0;stroke-dasharray:5.0,5.0;" x1="105" x2="105" y1="40.2969" y2="2123.6797"/><line style="stroke:#A80036;stroke-width:1.0;stroke-dasharray:5.0,5.0;" x1="506" x2="506" y1="40.2969" y2="2123.6797"/><line style="stroke:#A80036;stroke-width:1.0;stroke-dasharray:5.0,5.0;" x1="710" x2="710" y1="40.2969" y2="2123.6797"/><line style="stroke:#A80036;stroke-width:1.0;stroke-dasharray:5.0,5.0;" x1="837" x2="837" y1="40.2969" y2="2123.6797"/><line style="stroke:#A80036;stroke-width:1.0;stroke-dasharray:5.0,5.0;" x1="1028" x2="1028" y1="40.2969" y2="2123.6797"/><line style="stroke:#A80036;stroke-width:1.0;stroke-dasharray:5.0,5.0;" x1="1269" x2="1269" y1="40.2969" y2="2123.6797"/><line style="stroke:#A80036;stroke-width:1.0;stroke-dasharray:5.0,5.0;" x1="1440" x2="1440" y1="40.2969" y2="2123.6797"/><line style="stroke:#A80036;stroke-width:1.0;stroke-dasharray:5.0,5.0;" x1="1583" x2="1583" y1="40.2969" y2="2123.6797"/><line style="stroke:#A80036;stroke-width:1.0;stroke-dasharray:5.0,5.0;" x1="1685" x2="1685" y1="40.2969" y2="2123.6797"/><line style="stroke:#A80036;stroke-width:1.0;stroke-dasharray:5.0,5.0;" x1="1765" x2="1765" y1="40.2969" y2="2123.6797"/><line style="stroke:#A80036;stroke-width:1.0;stroke-dasharray:5.0,5.0;" x1="1885" x2="1885" y1="40.2969" y2="2123.6797"/><line style="stroke:#A80036;stroke-width:1.0;stroke-dasharray:5.0,5.0;" x1="2045" x2="2045" y1="40.2969" y2="2123.6797"/><line style="stroke:#A80036;stroke-width:1.0;stroke-dasharray:5.0,5.0;" x1="2204" x2="2204" y1="40.2969" y2="2123.6797"/><line style="stroke:#A80036;stroke-width:1.0;stroke-dasharray:5.0,5.0;" x1="2365" x2="2365" y1="40.2969" y2="2123.6797"/><line style="stroke:#A80036;stroke-width:1.0;stroke-dasharray:5.0,5.0;" x1="2535" x2="2535" y1="40.2969" y2="2123.6797"/><line style="stroke:#A80036;stroke-width:1.0;stroke-dasharray:5.0,5.0;" x1="2675" x2="2675" y1="40.2969" y2="2123.6797"/><rect fill="#FEFECE" filter="url(#f1dbru50p2a4wc)" height="30.2969" style="stroke:#A80036;stroke-width:1.5;" width="126" x="40" y="5"/><text fill="#000000" font-family="sans-serif" font-size="14" lengthAdjust="spacing" textLength="112" x="47" y="24.9951">:MotorAsServer</text><rect fill="#FEFECE" filter="url(#f1dbru50p2a4wc)" height="30.2969" style="stroke:#A80036;stroke-width:1.5;" width="126" x="40" y="2122.6797"/><text fill="#000000" font-family="sans-serif" font-size="14" lengthAdjust="spacing" textLength="112" x="47" y="2142.6748">:MotorAsServer</text><rect fill="#FEFECE" filter="url(#f1dbru50p2a4wc)" height="30.2969" style="stroke:#A80036;stroke-width:1.5;" width="216" x="396" y="5"/><text fill="#000000" font-family="sans-serif" font-size="14" lengthAdjust="spacing" textLength="202" x="403" y="24.9951">:ListPedidoManualController</text><rect fill="#FEFECE" filter="url(#f1dbru50p2a4wc)" height="30.2969" style="stroke:#A80036;stroke-width:1.5;" width="216" x="396" y="2122.6797"/><text fill="#000000" font-family="sans-serif" font-size="14" lengthAdjust="spacing" textLength="202" x="403" y="2142.6748">:ListPedidoManualController</text><rect fill="#FEFECE" filter="url(#f1dbru50p2a4wc)" height="30.2969" style="stroke:#A80036;stroke-width:1.5;" width="164" x="626" y="5"/><text fill="#000000" font-family="sans-serif" font-size="14" lengthAdjust="spacing" textLength="150" x="633" y="24.9951">:ConcurrentHashMap</text><rect fill="#FEFECE" filter="url(#f1dbru50p2a4wc)" height="30.2969" style="stroke:#A80036;stroke-width:1.5;" width="164" x="626" y="2122.6797"/><text fill="#000000" font-family="sans-serif" font-size="14" lengthAdjust="spacing" textLength="150" x="633" y="2142.6748">:ConcurrentHashMap</text><rect fill="#FEFECE" filter="url(#f1dbru50p2a4wc)" height="30.2969" style="stroke:#A80036;stroke-width:1.5;" width="63" x="804" y="5"/><text fill="#000000" font-family="sans-serif" font-size="14" lengthAdjust="spacing" textLength="49" x="811" y="24.9951">:String</text><rect fill="#FEFECE" filter="url(#f1dbru50p2a4wc)" height="30.2969" style="stroke:#A80036;stroke-width:1.5;" width="63" x="804" y="2122.6797"/><text fill="#000000" font-family="sans-serif" font-size="14" lengthAdjust="spacing" textLength="49" x="811" y="2142.6748">:String</text><rect fill="#FEFECE" filter="url(#f1dbru50p2a4wc)" height="30.2969" style="stroke:#A80036;stroke-width:1.5;" width="291" x="881" y="5"/><text fill="#000000" font-family="sans-serif" font-size="14" lengthAdjust="spacing" textLength="277" x="888" y="24.9951">:AtribuirTarefaAColaboradorController</text><rect fill="#FEFECE" filter="url(#f1dbru50p2a4wc)" height="30.2969" style="stroke:#A80036;stroke-width:1.5;" width="291" x="881" y="2122.6797"/><text fill="#000000" font-family="sans-serif" font-size="14" lengthAdjust="spacing" textLength="277" x="888" y="2142.6748">:AtribuirTarefaAColaboradorController</text><rect fill="#FEFECE" filter="url(#f1dbru50p2a4wc)" height="30.2969" style="stroke:#A80036;stroke-width:1.5;" width="162" x="1186" y="5"/><text fill="#000000" font-family="sans-serif" font-size="14" lengthAdjust="spacing" textLength="148" x="1193" y="24.9951">:PersistenceContext</text><rect fill="#FEFECE" filter="url(#f1dbru50p2a4wc)" height="30.2969" style="stroke:#A80036;stroke-width:1.5;" width="162" x="1186" y="2122.6797"/><text fill="#000000" font-family="sans-serif" font-size="14" lengthAdjust="spacing" textLength="148" x="1193" y="2142.6748">:PersistenceContext</text><rect fill="#FEFECE" filter="url(#f1dbru50p2a4wc)" height="30.2969" style="stroke:#A80036;stroke-width:1.5;" width="152" x="1362" y="5"/><text fill="#000000" font-family="sans-serif" font-size="14" lengthAdjust="spacing" textLength="138" x="1369" y="24.9951">:RepositoryFactory</text><rect fill="#FEFECE" filter="url(#f1dbru50p2a4wc)" height="30.2969" style="stroke:#A80036;stroke-width:1.5;" width="152" x="1362" y="2122.6797"/><text fill="#000000" font-family="sans-serif" font-size="14" lengthAdjust="spacing" textLength="138" x="1369" y="2142.6748">:RepositoryFactory</text><rect fill="#FEFECE" filter="url(#f1dbru50p2a4wc)" height="30.2969" style="stroke:#A80036;stroke-width:1.5;" width="107" x="1528" y="5"/><text fill="#000000" font-family="sans-serif" font-size="14" lengthAdjust="spacing" textLength="93" x="1535" y="24.9951">:Colaborador</text><rect fill="#FEFECE" filter="url(#f1dbru50p2a4wc)" height="30.2969" style="stroke:#A80036;stroke-width:1.5;" width="107" x="1528" y="2122.6797"/><text fill="#000000" font-family="sans-serif" font-size="14" lengthAdjust="spacing" textLength="93" x="1535" y="2142.6748">:Colaborador</text><rect fill="#FEFECE" filter="url(#f1dbru50p2a4wc)" height="30.2969" style="stroke:#A80036;stroke-width:1.5;" width="68" x="1649" y="5"/><text fill="#000000" font-family="sans-serif" font-size="14" lengthAdjust="spacing" textLength="54" x="1656" y="24.9951">:Pedido</text><rect fill="#FEFECE" filter="url(#f1dbru50p2a4wc)" height="30.2969" style="stroke:#A80036;stroke-width:1.5;" width="68" x="1649" y="2122.6797"/><text fill="#000000" font-family="sans-serif" font-size="14" lengthAdjust="spacing" textLength="54" x="1656" y="2142.6748">:Pedido</text><rect fill="#FEFECE" filter="url(#f1dbru50p2a4wc)" height="30.2969" style="stroke:#A80036;stroke-width:1.5;" width="65" x="1731" y="5"/><text fill="#000000" font-family="sans-serif" font-size="14" lengthAdjust="spacing" textLength="51" x="1738" y="24.9951">:Tarefa</text><rect fill="#FEFECE" filter="url(#f1dbru50p2a4wc)" height="30.2969" style="stroke:#A80036;stroke-width:1.5;" width="65" x="1731" y="2122.6797"/><text fill="#000000" font-family="sans-serif" font-size="14" lengthAdjust="spacing" textLength="51" x="1738" y="2142.6748">:Tarefa</text><rect fill="#FEFECE" filter="url(#f1dbru50p2a4wc)" height="30.2969" style="stroke:#A80036;stroke-width:1.5;" width="147" x="1810" y="5"/><text fill="#000000" font-family="sans-serif" font-size="14" lengthAdjust="spacing" textLength="133" x="1817" y="24.9951">:PedidoRepository</text><rect fill="#FEFECE" filter="url(#f1dbru50p2a4wc)" height="30.2969" style="stroke:#A80036;stroke-width:1.5;" width="147" x="1810" y="2122.6797"/><text fill="#000000" font-family="sans-serif" font-size="14" lengthAdjust="spacing" textLength="133" x="1817" y="2142.6748">:PedidoRepository</text><rect fill="#FEFECE" filter="url(#f1dbru50p2a4wc)" height="30.2969" style="stroke:#A80036;stroke-width:1.5;" width="144" x="1971" y="5"/><text fill="#000000" font-family="sans-serif" font-size="14" lengthAdjust="spacing" textLength="130" x="1978" y="24.9951">:TarefaRepository</text><rect fill="#FEFECE" filter="url(#f1dbru50p2a4wc)" height="30.2969" style="stroke:#A80036;stroke-width:1.5;" width="144" x="1971" y="2122.6797"/><text fill="#000000" font-family="sans-serif" font-size="14" lengthAdjust="spacing" textLength="130" x="1978" y="2142.6748">:TarefaRepository</text><rect fill="#FEFECE" filter="url(#f1dbru50p2a4wc)" height="30.2969" style="stroke:#A80036;stroke-width:1.5;" width="147" x="2129" y="5"/><text fill="#000000" font-family="sans-serif" font-size="14" lengthAdjust="spacing" textLength="133" x="2136" y="24.9951">:PedidoRepository</text><rect fill="#FEFECE" filter="url(#f1dbru50p2a4wc)" height="30.2969" style="stroke:#A80036;stroke-width:1.5;" width="147" x="2129" y="2122.6797"/><text fill="#000000" font-family="sans-serif" font-size="14" lengthAdjust="spacing" textLength="133" x="2136" y="2142.6748">:PedidoRepository</text><rect fill="#FEFECE" filter="url(#f1dbru50p2a4wc)" height="30.2969" style="stroke:#A80036;stroke-width:1.5;" width="146" x="2290" y="5"/><text fill="#000000" font-family="sans-serif" font-size="14" lengthAdjust="spacing" textLength="132" x="2297" y="24.9951">:EquipaRepository</text><rect fill="#FEFECE" filter="url(#f1dbru50p2a4wc)" height="30.2969" style="stroke:#A80036;stroke-width:1.5;" width="146" x="2290" y="2122.6797"/><text fill="#000000" font-family="sans-serif" font-size="14" lengthAdjust="spacing" textLength="132" x="2297" y="2142.6748">:EquipaRepository</text><rect fill="#FEFECE" filter="url(#f1dbru50p2a4wc)" height="30.2969" style="stroke:#A80036;stroke-width:1.5;" width="166" x="2450" y="5"/><text fill="#000000" font-family="sans-serif" font-size="14" lengthAdjust="spacing" textLength="152" x="2457" y="24.9951">:WorkflowRepository</text><rect fill="#FEFECE" filter="url(#f1dbru50p2a4wc)" height="30.2969" style="stroke:#A80036;stroke-width:1.5;" width="166" x="2450" y="2122.6797"/><text fill="#000000" font-family="sans-serif" font-size="14" lengthAdjust="spacing" textLength="152" x="2457" y="2142.6748">:WorkflowRepository</text><rect fill="#FEFECE" filter="url(#f1dbru50p2a4wc)" height="30.2969" style="stroke:#A80036;stroke-width:1.5;" width="87" x="2630" y="5"/><text fill="#000000" font-family="sans-serif" font-size="14" lengthAdjust="spacing" textLength="73" x="2637" y="24.9951">:Workflow</text><rect fill="#FEFECE" filter="url(#f1dbru50p2a4wc)" height="30.2969" style="stroke:#A80036;stroke-width:1.5;" width="87" x="2630" y="2122.6797"/><text fill="#000000" font-family="sans-serif" font-size="14" lengthAdjust="spacing" textLength="73" x="2637" y="2142.6748">:Workflow</text><rect fill="#FFFFFF" filter="url(#f1dbru50p2a4wc)" height="2063.3828" style="stroke:#A80036;stroke-width:1.0;" width="10" x="100" y="50.2969"/><rect fill="#FFFFFF" filter="url(#f1dbru50p2a4wc)" height="205.6641" style="stroke:#A80036;stroke-width:1.0;" width="10" x="501" y="221.9609"/><rect fill="#FFFFFF" filter="url(#f1dbru50p2a4wc)" height="30" style="stroke:#A80036;stroke-width:1.0;" width="10" x="705" y="505.0234"/><rect fill="#FFFFFF" filter="url(#f1dbru50p2a4wc)" height="30" style="stroke:#A80036;stroke-width:1.0;" width="10" x="705" y="564.1563"/><rect fill="#FFFFFF" filter="url(#f1dbru50p2a4wc)" height="30" style="stroke:#A80036;stroke-width:1.0;" width="10" x="705" y="1302.0156"/><rect fill="#FFFFFF" filter="url(#f1dbru50p2a4wc)" height="649.5938" style="stroke:#A80036;stroke-width:1.0;" width="10" x="1023.5" y="623.2891"/><rect fill="#FFFFFF" filter="url(#f1dbru50p2a4wc)" height="30" style="stroke:#A80036;stroke-width:1.0;" width="10" x="1023.5" y="1375.9531"/><rect fill="#FFFFFF" filter="url(#f1dbru50p2a4wc)" height="649.5938" style="stroke:#A80036;stroke-width:1.0;" width="10" x="1023.5" y="1435.0859"/><rect fill="#FFFFFF" filter="url(#f1dbru50p2a4wc)" height="88.2656" style="stroke:#A80036;stroke-width:1.0;" width="10" x="1264" y="251.0938"/><rect fill="#FFFFFF" filter="url(#f1dbru50p2a4wc)" height="324.7969" style="stroke:#A80036;stroke-width:1.0;" width="10" x="1264" y="652.4219"/><rect fill="#FFFFFF" filter="url(#f1dbru50p2a4wc)" height="324.7969" style="stroke:#A80036;stroke-width:1.0;" width="10" x="1264" y="1464.2188"/><rect fill="#FFFFFF" filter="url(#f1dbru50p2a4wc)" height="59.1328" style="stroke:#A80036;stroke-width:1.0;" width="10" x="1435" y="280.2266"/><rect fill="#FFFFFF" filter="url(#f1dbru50p2a4wc)" height="295.6641" style="stroke:#A80036;stroke-width:1.0;" width="10" x="1435" y="681.5547"/><rect fill="#FFFFFF" filter="url(#f1dbru50p2a4wc)" height="295.6641" style="stroke:#A80036;stroke-width:1.0;" width="10" x="1435" y="1493.3516"/><rect fill="#FFFFFF" filter="url(#f1dbru50p2a4wc)" height="30" style="stroke:#A80036;stroke-width:1.0;" width="10" x="1680" y="1065.4844"/><rect fill="#FFFFFF" filter="url(#f1dbru50p2a4wc)" height="30" style="stroke:#A80036;stroke-width:1.0;" width="10" x="1680" y="1877.2813"/><rect fill="#FFFFFF" filter="url(#f1dbru50p2a4wc)" height="30" style="stroke:#A80036;stroke-width:1.0;" width="10" x="1760.5" y="1183.75"/><rect fill="#FFFFFF" filter="url(#f1dbru50p2a4wc)" height="30" style="stroke:#A80036;stroke-width:1.0;" width="10" x="1760.5" y="1995.5469"/><rect fill="#FFFFFF" filter="url(#f1dbru50p2a4wc)" height="30" style="stroke:#A80036;stroke-width:1.0;" width="10" x="1880.5" y="710.6875"/><rect fill="#FFFFFF" filter="url(#f1dbru50p2a4wc)" height="30" style="stroke:#A80036;stroke-width:1.0;" width="10" x="1880.5" y="1124.6172"/><rect fill="#FFFFFF" filter="url(#f1dbru50p2a4wc)" height="30" style="stroke:#A80036;stroke-width:1.0;" width="10" x="1880.5" y="1522.4844"/><rect fill="#FFFFFF" filter="url(#f1dbru50p2a4wc)" height="30" style="stroke:#A80036;stroke-width:1.0;" width="10" x="1880.5" y="1936.4141"/><rect fill="#FFFFFF" filter="url(#f1dbru50p2a4wc)" height="30" style="stroke:#A80036;stroke-width:1.0;" width="10" x="2040" y="769.8203"/><rect fill="#FFFFFF" filter="url(#f1dbru50p2a4wc)" height="30" style="stroke:#A80036;stroke-width:1.0;" width="10" x="2040" y="1242.8828"/><rect fill="#FFFFFF" filter="url(#f1dbru50p2a4wc)" height="30" style="stroke:#A80036;stroke-width:1.0;" width="10" x="2040" y="1581.6172"/><rect fill="#FFFFFF" filter="url(#f1dbru50p2a4wc)" height="30" style="stroke:#A80036;stroke-width:1.0;" width="10" x="2040" y="2054.6797"/><rect fill="#FFFFFF" filter="url(#f1dbru50p2a4wc)" height="30" style="stroke:#A80036;stroke-width:1.0;" width="10" x="2199.5" y="309.3594"/><rect fill="#FFFFFF" filter="url(#f1dbru50p2a4wc)" height="30" style="stroke:#A80036;stroke-width:1.0;" width="10" x="2199.5" y="368.4922"/><rect fill="#FFFFFF" filter="url(#f1dbru50p2a4wc)" height="30" style="stroke:#A80036;stroke-width:1.0;" width="10" x="2199.5" y="828.9531"/><rect fill="#FFFFFF" filter="url(#f1dbru50p2a4wc)" height="30" style="stroke:#A80036;stroke-width:1.0;" width="10" x="2199.5" y="1640.75"/><rect fill="#FFFFFF" filter="url(#f1dbru50p2a4wc)" height="30" style="stroke:#A80036;stroke-width:1.0;" width="10" x="2360" y="888.0859"/><rect fill="#FFFFFF" filter="url(#f1dbru50p2a4wc)" height="30" style="stroke:#A80036;stroke-width:1.0;" width="10" x="2360" y="1699.8828"/><rect fill="#FFFFFF" filter="url(#f1dbru50p2a4wc)" height="30" style="stroke:#A80036;stroke-width:1.0;" width="10" x="2530" y="947.2188"/><rect fill="#FFFFFF" filter="url(#f1dbru50p2a4wc)" height="30" style="stroke:#A80036;stroke-width:1.0;" width="10" x="2530" y="1006.3516"/><rect fill="#FFFFFF" filter="url(#f1dbru50p2a4wc)" height="30" style="stroke:#A80036;stroke-width:1.0;" width="10" x="2530" y="1759.0156"/><rect fill="#FFFFFF" filter="url(#f1dbru50p2a4wc)" height="30" style="stroke:#A80036;stroke-width:1.0;" width="10" x="2530" y="1818.1484"/><line style="stroke:#A80036;stroke-width:1.0;" x1="110" x2="152" y1="71.4297" y2="71.4297"/><line style="stroke:#A80036;stroke-width:1.0;" x1="152" x2="152" y1="71.4297" y2="84.4297"/><line style="stroke:#A80036;stroke-width:1.0;" x1="111" x2="152" y1="84.4297" y2="84.4297"/><polygon fill="#A80036" points="121,80.4297,111,84.4297,121,88.4297,117,84.4297" style="stroke:#A80036;stroke-width:1.0;"/><text fill="#000000" font-family="sans-serif" font-size="13" lengthAdjust="spacing" textLength="103" x="117" y="66.3638">getPropValues()</text><line style="stroke:#A80036;stroke-width:1.0;" x1="110" x2="152" y1="113.5625" y2="113.5625"/><line style="stroke:#A80036;stroke-width:1.0;" x1="152" x2="152" y1="113.5625" y2="126.5625"/><line style="stroke:#A80036;stroke-width:1.0;" x1="111" x2="152" y1="126.5625" y2="126.5625"/><polygon fill="#A80036" points="121,122.5625,111,126.5625,121,130.5625,117,126.5625" style="stroke:#A80036;stroke-width:1.0;"/><text fill="#000000" font-family="sans-serif" font-size="13" lengthAdjust="spacing" textLength="186" x="117" y="108.4966">fillMapEquipaColaboradores()</text><line style="stroke:#A80036;stroke-width:1.0;" x1="110" x2="152" y1="155.6953" y2="155.6953"/><line style="stroke:#A80036;stroke-width:1.0;" x1="152" x2="152" y1="155.6953" y2="168.6953"/><line style="stroke:#A80036;stroke-width:1.0;" x1="111" x2="152" y1="168.6953" y2="168.6953"/><polygon fill="#A80036" points="121,164.6953,111,168.6953,121,172.6953,117,168.6953" style="stroke:#A80036;stroke-width:1.0;"/><text fill="#000000" font-family="sans-serif" font-size="13" lengthAdjust="spacing" textLength="377" x="117" y="150.6294">AssignarTarefasManuaisAColaboradores(version, safeMap)</text><path d="M10,183.6953 L88,183.6953 L88,190.6953 L78,200.6953 L10,200.6953 L10,183.6953 " fill="#EEEEEE" style="stroke:#000000;stroke-width:1.0;"/><rect fill="none" height="1922.9844" style="stroke:#000000;stroke-width:2.0;" width="2640" x="10" y="183.6953"/><text fill="#000000" font-family="sans-serif" font-size="13" font-weight="bold" lengthAdjust="spacing" textLength="33" x="25" y="196.7622">loop</text><polygon fill="#A80036" points="489,217.9609,499,221.9609,489,225.9609,493,221.9609" style="stroke:#A80036;stroke-width:1.0;"/><line style="stroke:#A80036;stroke-width:1.0;" x1="110" x2="495" y1="221.9609" y2="221.9609"/><text fill="#000000" font-family="sans-serif" font-size="13" lengthAdjust="spacing" textLength="196" x="117" y="216.895">pedidosParaExecucaoManual()</text><polygon fill="#A80036" points="1252,247.0938,1262,251.0938,1252,255.0938,1256,251.0938" style="stroke:#A80036;stroke-width:1.0;"/><line style="stroke:#A80036;stroke-width:1.0;" x1="511" x2="1258" y1="251.0938" y2="251.0938"/><text fill="#000000" font-family="sans-serif" font-size="13" lengthAdjust="spacing" textLength="85" x="518" y="246.0278">repositories()</text><polygon fill="#A80036" points="1423,276.2266,1433,280.2266,1423,284.2266,1427,280.2266" style="stroke:#A80036;stroke-width:1.0;"/><line style="stroke:#A80036;stroke-width:1.0;" x1="1274" x2="1429" y1="280.2266" y2="280.2266"/><text fill="#000000" font-family="sans-serif" font-size="13" lengthAdjust="spacing" textLength="41" x="1281" y="275.1606">create</text><polygon fill="#A80036" points="2187.5,305.3594,2197.5,309.3594,2187.5,313.3594,2191.5,309.3594" style="stroke:#A80036;stroke-width:1.0;"/><line style="stroke:#A80036;stroke-width:1.0;" x1="1445" x2="2193.5" y1="309.3594" y2="309.3594"/><text fill="#000000" font-family="sans-serif" font-size="13" lengthAdjust="spacing" textLength="41" x="1452" y="304.2935">create</text><polygon fill="#A80036" points="2187.5,364.4922,2197.5,368.4922,2187.5,372.4922,2191.5,368.4922" style="stroke:#A80036;stroke-width:1.0;"/><line style="stroke:#A80036;stroke-width:1.0;" x1="511" x2="2193.5" y1="368.4922" y2="368.4922"/><text fill="#000000" font-family="sans-serif" font-size="13" lengthAdjust="spacing" textLength="196" x="518" y="363.4263">pedidosParaExecucaoManual()</text><polygon fill="#A80036" points="121,423.625,111,427.625,121,431.625,117,427.625" style="stroke:#A80036;stroke-width:1.0;"/><line style="stroke:#A80036;stroke-width:1.0;stroke-dasharray:2.0,2.0;" x1="115" x2="505" y1="427.625" y2="427.625"/><text fill="#000000" font-family="sans-serif" font-size="13" lengthAdjust="spacing" textLength="194" x="127" y="422.5591">newPedidosExecucaoManual()</text><path d="M20,442.625 L98,442.625 L98,449.625 L88,459.625 L20,459.625 L20,442.625 " fill="#EEEEEE" style="stroke:#000000;stroke-width:1.0;"/><rect fill="none" height="1657.0547" style="stroke:#000000;stroke-width:2.0;" width="2620" x="20" y="442.625"/><text fill="#000000" font-family="sans-serif" font-size="13" font-weight="bold" lengthAdjust="spacing" textLength="33" x="35" y="455.6919">loop</text><text fill="#000000" font-family="sans-serif" font-size="11" font-weight="bold" lengthAdjust="spacing" textLength="443" x="113" y="454.8354">[enquanto houver pedidos sem o estado alterado para atribuidas]</text><path d="M30,466.7578 L96,466.7578 L96,473.7578 L86,483.7578 L30,483.7578 L30,466.7578 " fill="#EEEEEE" style="stroke:#000000;stroke-width:1.0;"/><rect fill="none" height="1625.9219" style="stroke:#000000;stroke-width:2.0;" width="2600" x="30" y="466.7578"/><text fill="#000000" font-family="sans-serif" font-size="13" font-weight="bold" lengthAdjust="spacing" textLength="21" x="45" y="479.8247">alt</text><text fill="#000000" font-family="sans-serif" font-size="11" font-weight="bold" lengthAdjust="spacing" textLength="248" x="111" y="478.9683">[version == First_Come_First_Served]</text><polygon fill="#A80036" points="693,501.0234,703,505.0234,693,509.0234,697,505.0234" style="stroke:#A80036;stroke-width:1.0;"/><line style="stroke:#A80036;stroke-width:1.0;" x1="110" x2="699" y1="505.0234" y2="505.0234"/><text fill="#000000" font-family="sans-serif" font-size="13" lengthAdjust="spacing" textLength="74" x="117" y="499.9575">get(equipa)</text><polygon fill="#A80036" points="693,560.1563,703,564.1563,693,568.1563,697,564.1563" style="stroke:#A80036;stroke-width:1.0;"/><line style="stroke:#A80036;stroke-width:1.0;" x1="110" x2="699" y1="564.1563" y2="564.1563"/><text fill="#000000" font-family="sans-serif" font-size="13" lengthAdjust="spacing" textLength="84" x="117" y="559.0903">colab = poll()</text><polygon fill="#A80036" points="1011.5,619.2891,1021.5,623.2891,1011.5,627.2891,1015.5,623.2891" style="stroke:#A80036;stroke-width:1.0;"/><line style="stroke:#A80036;stroke-width:1.0;" x1="110" x2="1017.5" y1="623.2891" y2="623.2891"/><text fill="#000000" font-family="sans-serif" font-size="13" lengthAdjust="spacing" textLength="235" x="117" y="618.2231">atribuirPedidoAColaborador(p, colab)</text><polygon fill="#A80036" points="1252,648.4219,1262,652.4219,1252,656.4219,1256,652.4219" style="stroke:#A80036;stroke-width:1.0;"/><line style="stroke:#A80036;stroke-width:1.0;" x1="1033.5" x2="1258" y1="652.4219" y2="652.4219"/><text fill="#000000" font-family="sans-serif" font-size="13" lengthAdjust="spacing" textLength="85" x="1040.5" y="647.356">repositories()</text><polygon fill="#A80036" points="1423,677.5547,1433,681.5547,1423,685.5547,1427,681.5547" style="stroke:#A80036;stroke-width:1.0;"/><line style="stroke:#A80036;stroke-width:1.0;" x1="1274" x2="1429" y1="681.5547" y2="681.5547"/><text fill="#000000" font-family="sans-serif" font-size="13" lengthAdjust="spacing" textLength="41" x="1281" y="676.4888">create</text><polygon fill="#A80036" points="1868.5,706.6875,1878.5,710.6875,1868.5,714.6875,1872.5,710.6875" style="stroke:#A80036;stroke-width:1.0;"/><line style="stroke:#A80036;stroke-width:1.0;" x1="1445" x2="1874.5" y1="710.6875" y2="710.6875"/><text fill="#000000" font-family="sans-serif" font-size="13" lengthAdjust="spacing" textLength="41" x="1452" y="705.6216">create</text><polygon fill="#A80036" points="2028,765.8203,2038,769.8203,2028,773.8203,2032,769.8203" style="stroke:#A80036;stroke-width:1.0;"/><line style="stroke:#A80036;stroke-width:1.0;" x1="1445" x2="2034" y1="769.8203" y2="769.8203"/><text fill="#000000" font-family="sans-serif" font-size="13" lengthAdjust="spacing" textLength="41" x="1452" y="764.7544">create</text><polygon fill="#A80036" points="2187.5,824.9531,2197.5,828.9531,2187.5,832.9531,2191.5,828.9531" style="stroke:#A80036;stroke-width:1.0;"/><line style="stroke:#A80036;stroke-width:1.0;" x1="1445" x2="2193.5" y1="828.9531" y2="828.9531"/><text fill="#000000" font-family="sans-serif" font-size="13" lengthAdjust="spacing" textLength="41" x="1452" y="823.8872">create</text><polygon fill="#A80036" points="2348,884.0859,2358,888.0859,2348,892.0859,2352,888.0859" style="stroke:#A80036;stroke-width:1.0;"/><line style="stroke:#A80036;stroke-width:1.0;" x1="1445" x2="2354" y1="888.0859" y2="888.0859"/><text fill="#000000" font-family="sans-serif" font-size="13" lengthAdjust="spacing" textLength="41" x="1452" y="883.02">create</text><polygon fill="#A80036" points="2518,943.2188,2528,947.2188,2518,951.2188,2522,947.2188" style="stroke:#A80036;stroke-width:1.0;"/><line style="stroke:#A80036;stroke-width:1.0;" x1="1445" x2="2524" y1="947.2188" y2="947.2188"/><text fill="#000000" font-family="sans-serif" font-size="13" lengthAdjust="spacing" textLength="41" x="1452" y="942.1528">create</text><polygon fill="#A80036" points="2518,1002.3516,2528,1006.3516,2518,1010.3516,2522,1006.3516" style="stroke:#A80036;stroke-width:1.0;"/><line style="stroke:#A80036;stroke-width:1.0;" x1="1033.5" x2="2524" y1="1006.3516" y2="1006.3516"/><text fill="#000000" font-family="sans-serif" font-size="13" lengthAdjust="spacing" textLength="101" x="1040.5" y="1001.2856">save(newWork)</text><polygon fill="#A80036" points="1668,1061.4844,1678,1065.4844,1668,1069.4844,1672,1065.4844" style="stroke:#A80036;stroke-width:1.0;"/><line style="stroke:#A80036;stroke-width:1.0;" x1="1033.5" x2="1674" y1="1065.4844" y2="1065.4844"/><text fill="#000000" font-family="sans-serif" font-size="13" lengthAdjust="spacing" textLength="195" x="1040.5" y="1060.4185">changeState(EM_RESOLUCAO)</text><polygon fill="#A80036" points="1868.5,1120.6172,1878.5,1124.6172,1868.5,1128.6172,1872.5,1124.6172" style="stroke:#A80036;stroke-width:1.0;"/><line style="stroke:#A80036;stroke-width:1.0;" x1="1033.5" x2="1874.5" y1="1124.6172" y2="1124.6172"/><text fill="#000000" font-family="sans-serif" font-size="13" lengthAdjust="spacing" textLength="49" x="1040.5" y="1119.5513">save(p)</text><polygon fill="#A80036" points="1748.5,1179.75,1758.5,1183.75,1748.5,1187.75,1752.5,1183.75" style="stroke:#A80036;stroke-width:1.0;"/><line style="stroke:#A80036;stroke-width:1.0;" x1="1033.5" x2="1754.5" y1="1183.75" y2="1183.75"/><text fill="#000000" font-family="sans-serif" font-size="13" lengthAdjust="spacing" textLength="350" x="1040.5" y="1178.6841">newTarefa = new Tarefa(p, EM_EXECUCAO, newWork)</text><polygon fill="#A80036" points="2028,1238.8828,2038,1242.8828,2028,1246.8828,2032,1242.8828" style="stroke:#A80036;stroke-width:1.0;"/><line style="stroke:#A80036;stroke-width:1.0;" x1="1033.5" x2="2034" y1="1242.8828" y2="1242.8828"/><text fill="#000000" font-family="sans-serif" font-size="13" lengthAdjust="spacing" textLength="110" x="1040.5" y="1237.8169">save(newTarefa)</text><polygon fill="#A80036" points="693,1298.0156,703,1302.0156,693,1306.0156,697,1302.0156" style="stroke:#A80036;stroke-width:1.0;"/><line style="stroke:#A80036;stroke-width:1.0;" x1="110" x2="699" y1="1302.0156" y2="1302.0156"/><text fill="#000000" font-family="sans-serif" font-size="13" lengthAdjust="spacing" textLength="68" x="117" y="1296.9497">add(colab)</text><line style="stroke:#000000;stroke-width:1.0;stroke-dasharray:2.0,2.0;" x1="30" x2="2630" y1="1341.0156" y2="1341.0156"/><text fill="#000000" font-family="sans-serif" font-size="11" font-weight="bold" lengthAdjust="spacing" textLength="233" x="35" y="1351.2261">[version == Algoritmo_Inteligente]</text><polygon fill="#A80036" points="1011.5,1371.9531,1021.5,1375.9531,1011.5,1379.9531,1015.5,1375.9531" style="stroke:#A80036;stroke-width:1.0;"/><line style="stroke:#A80036;stroke-width:1.0;" x1="110" x2="1017.5" y1="1375.9531" y2="1375.9531"/><text fill="#000000" font-family="sans-serif" font-size="13" lengthAdjust="spacing" textLength="415" x="117" y="1370.8872">colab = colaboradorComMenorTempoTotalExecucaoDeEquipa(p)</text><polygon fill="#A80036" points="1011.5,1431.0859,1021.5,1435.0859,1011.5,1439.0859,1015.5,1435.0859" style="stroke:#A80036;stroke-width:1.0;"/><line style="stroke:#A80036;stroke-width:1.0;" x1="110" x2="1017.5" y1="1435.0859" y2="1435.0859"/><text fill="#000000" font-family="sans-serif" font-size="13" lengthAdjust="spacing" textLength="235" x="117" y="1430.02">atribuirPedidoAColaborador(p, colab)</text><polygon fill="#A80036" points="1252,1460.2188,1262,1464.2188,1252,1468.2188,1256,1464.2188" style="stroke:#A80036;stroke-width:1.0;"/><line style="stroke:#A80036;stroke-width:1.0;" x1="1033.5" x2="1258" y1="1464.2188" y2="1464.2188"/><text fill="#000000" font-family="sans-serif" font-size="13" lengthAdjust="spacing" textLength="85" x="1040.5" y="1459.1528">repositories()</text><polygon fill="#A80036" points="1423,1489.3516,1433,1493.3516,1423,1497.3516,1427,1493.3516" style="stroke:#A80036;stroke-width:1.0;"/><line style="stroke:#A80036;stroke-width:1.0;" x1="1274" x2="1429" y1="1493.3516" y2="1493.3516"/><text fill="#000000" font-family="sans-serif" font-size="13" lengthAdjust="spacing" textLength="41" x="1281" y="1488.2856">create</text><polygon fill="#A80036" points="1868.5,1518.4844,1878.5,1522.4844,1868.5,1526.4844,1872.5,1522.4844" style="stroke:#A80036;stroke-width:1.0;"/><line style="stroke:#A80036;stroke-width:1.0;" x1="1445" x2="1874.5" y1="1522.4844" y2="1522.4844"/><text fill="#000000" font-family="sans-serif" font-size="13" lengthAdjust="spacing" textLength="41" x="1452" y="1517.4185">create</text><polygon fill="#A80036" points="2028,1577.6172,2038,1581.6172,2028,1585.6172,2032,1581.6172" style="stroke:#A80036;stroke-width:1.0;"/><line style="stroke:#A80036;stroke-width:1.0;" x1="1445" x2="2034" y1="1581.6172" y2="1581.6172"/><text fill="#000000" font-family="sans-serif" font-size="13" lengthAdjust="spacing" textLength="41" x="1452" y="1576.5513">create</text><polygon fill="#A80036" points="2187.5,1636.75,2197.5,1640.75,2187.5,1644.75,2191.5,1640.75" style="stroke:#A80036;stroke-width:1.0;"/><line style="stroke:#A80036;stroke-width:1.0;" x1="1445" x2="2193.5" y1="1640.75" y2="1640.75"/><text fill="#000000" font-family="sans-serif" font-size="13" lengthAdjust="spacing" textLength="41" x="1452" y="1635.6841">create</text><polygon fill="#A80036" points="2348,1695.8828,2358,1699.8828,2348,1703.8828,2352,1699.8828" style="stroke:#A80036;stroke-width:1.0;"/><line style="stroke:#A80036;stroke-width:1.0;" x1="1445" x2="2354" y1="1699.8828" y2="1699.8828"/><text fill="#000000" font-family="sans-serif" font-size="13" lengthAdjust="spacing" textLength="41" x="1452" y="1694.8169">create</text><polygon fill="#A80036" points="2518,1755.0156,2528,1759.0156,2518,1763.0156,2522,1759.0156" style="stroke:#A80036;stroke-width:1.0;"/><line style="stroke:#A80036;stroke-width:1.0;" x1="1445" x2="2524" y1="1759.0156" y2="1759.0156"/><text fill="#000000" font-family="sans-serif" font-size="13" lengthAdjust="spacing" textLength="41" x="1452" y="1753.9497">create</text><polygon fill="#A80036" points="2518,1814.1484,2528,1818.1484,2518,1822.1484,2522,1818.1484" style="stroke:#A80036;stroke-width:1.0;"/><line style="stroke:#A80036;stroke-width:1.0;" x1="1033.5" x2="2524" y1="1818.1484" y2="1818.1484"/><text fill="#000000" font-family="sans-serif" font-size="13" lengthAdjust="spacing" textLength="101" x="1040.5" y="1813.0825">save(newWork)</text><polygon fill="#A80036" points="1668,1873.2813,1678,1877.2813,1668,1881.2813,1672,1877.2813" style="stroke:#A80036;stroke-width:1.0;"/><line style="stroke:#A80036;stroke-width:1.0;" x1="1033.5" x2="1674" y1="1877.2813" y2="1877.2813"/><text fill="#000000" font-family="sans-serif" font-size="13" lengthAdjust="spacing" textLength="195" x="1040.5" y="1872.2153">changeState(EM_RESOLUCAO)</text><polygon fill="#A80036" points="1868.5,1932.4141,1878.5,1936.4141,1868.5,1940.4141,1872.5,1936.4141" style="stroke:#A80036;stroke-width:1.0;"/><line style="stroke:#A80036;stroke-width:1.0;" x1="1033.5" x2="1874.5" y1="1936.4141" y2="1936.4141"/><text fill="#000000" font-family="sans-serif" font-size="13" lengthAdjust="spacing" textLength="49" x="1040.5" y="1931.3481">save(p)</text><polygon fill="#A80036" points="1748.5,1991.5469,1758.5,1995.5469,1748.5,1999.5469,1752.5,1995.5469" style="stroke:#A80036;stroke-width:1.0;"/><line style="stroke:#A80036;stroke-width:1.0;" x1="1033.5" x2="1754.5" y1="1995.5469" y2="1995.5469"/><text fill="#000000" font-family="sans-serif" font-size="13" lengthAdjust="spacing" textLength="350" x="1040.5" y="1990.481">newTarefa = new Tarefa(p, EM_EXECUCAO, newWork)</text><polygon fill="#A80036" points="2028,2050.6797,2038,2054.6797,2028,2058.6797,2032,2054.6797" style="stroke:#A80036;stroke-width:1.0;"/><line style="stroke:#A80036;stroke-width:1.0;" x1="1033.5" x2="2034" y1="2054.6797" y2="2054.6797"/><text fill="#000000" font-family="sans-serif" font-size="13" lengthAdjust="spacing" textLength="110" x="1040.5" y="2049.6138">save(newTarefa)</text><!--MD5=[5532d29153444bb16acb56224b655753]
@startuml
participant ":MotorAsServer" as ui
		participant ":ListPedidoManualController" as ctrl
		participant ":ConcurrentHashMap" as safeMap
		participant ":String" as version
		participant ":AtribuirTarefaAColaboradorController" as atriController
		participant ":PersistenceContext" as pc
		participant ":RepositoryFactory" as rf
		participant ":PedidoRepository" as repoC
		participant ":Colaborador" as colab
		participant ":Pedido" as p
		participant ":Tarefa" as t
		participant ":PedidoRepository" as repoP 
        participant ":TarefaRepository" as repoT
        participant ":ColaboradorRepository" as repoC
        participant ":EquipaRepository" as repoE
        participant ":WorkflowRepository" as repoW
        participant ":Workflow" as work
        activate ui
        ui->ui:getPropValues()
        ui->ui:fillMapEquipaColaboradores()
		ui->ui:AssignarTarefasManuaisAColaboradores(version, safeMap)
		loop
            
	    ui->ctrl:pedidosParaExecucaoManual()
		activate ctrl
		ctrl->pc:repositories()
		activate pc
		pc->rf:create
		activate rf
		rf->repoC:create
		activate repoC
		deactivate repoC
		deactivate rf
		deactivate pc
		ctrl->repoC:pedidosParaExecucaoManual()
		activate repoC
		deactivate repoC
		ctrl- ->ui:newPedidosExecucaoManual()
		deactivate ctrl
		
		loop enquanto houver pedidos sem o estado alterado para atribuidas 
		
		alt version == First_Come_First_Served
		ui->safeMap: get(equipa)
		activate safeMap
		deactivate safeMap
		ui->safeMap: colab = poll()
		activate safeMap
		deactivate safeMap
		ui->atriController: atribuirPedidoAColaborador(p, colab)
		activate atriController
		
		atriController->pc:repositories()
		activate pc
		pc->rf:create
		activate rf
		rf->repoP:create
		activate repoP
		deactivate repoP
		rf->repoT:create
		activate repoT
		deactivate repoT
		rf->repoC:create
		activate repoC
		deactivate repoC
        rf->repoE:create
        activate repoE
		deactivate repoE
		rf->repoW:create
		activate repoW
		deactivate repoW
		deactivate rf
		deactivate pc
		
		atriController->repoW: save(newWork) 
		activate repoW
		deactivate repoW
		
		atriController->p: changeState(EM_RESOLUCAO)
		activate p
		deactivate p
		
		atriController->repoP: save(p)
		activate repoP
		deactivate repoP
		
		atriController->t: newTarefa = new Tarefa(p, EM_EXECUCAO, newWork)
        activate t
		deactivate t
        atriController->repoT:  save(newTarefa)
		activate repoT
		deactivate repoT
		
		deactivate atriController
		ui->safeMap: add(colab)
		activate safeMap
		deactivate safeMap
        else  version == Algoritmo_Inteligente
        ui->atriController: colab = colaboradorComMenorTempoTotalExecucaoDeEquipa(p)
		activate atriController
		deactivate atriController
		ui->atriController: atribuirPedidoAColaborador(p, colab)
		activate atriController
			atriController->pc:repositories()
		activate pc
		pc->rf:create
		activate rf
		rf->repoP:create
		activate repoP
		deactivate repoP
		rf->repoT:create
		activate repoT
		deactivate repoT
		rf->repoC:create
		activate repoC
		deactivate repoC
        rf->repoE:create
        activate repoE
		deactivate repoE
		rf->repoW:create
		activate repoW
		deactivate repoW
		deactivate rf
		deactivate pc
		
		atriController->repoW: save(newWork) 
		activate repoW
		deactivate repoW
		
		atriController->p: changeState(EM_RESOLUCAO)
		activate p
		deactivate p
		
		atriController->repoP: save(p)
		activate repoP
		deactivate repoP
		
		atriController->t: newTarefa = new Tarefa(p, EM_EXECUCAO, newWork)
        activate t
		deactivate t
        atriController->repoT:  save(newTarefa)
		activate repoT
		deactivate repoT
		deactivate atriController
		end
		end
		 end
		
		deactivate ui
@enduml

PlantUML version 1.2021.7(Sun May 23 12:40:07 UTC 2021)
(GPL source distribution)
Java Runtime: Java(TM) SE Runtime Environment
JVM: Java HotSpot(TM) 64-Bit Server VM
Default Encoding: UTF-8
Language: en
Country: US
--></g></svg>