<?xml version="1.0" encoding="UTF-8" standalone="no"?><svg xmlns="http://www.w3.org/2000/svg" xmlns:xlink="http://www.w3.org/1999/xlink" contentScriptType="application/ecmascript" contentStyleType="text/css" height="2181px" preserveAspectRatio="none" style="width:3068px;height:2181px;background:#FFFFFF;" version="1.1" viewBox="0 0 3068 2181" width="3068px" zoomAndPan="magnify"><defs><filter height="300%" id="f1h7ch14c2xyk3" width="300%" x="-1" y="-1"><feGaussianBlur result="blurOut" stdDeviation="2.0"/><feColorMatrix in="blurOut" result="blurOut2" type="matrix" values="0 0 0 0 0 0 0 0 0 0 0 0 0 0 0 0 0 0 .4 0"/><feOffset dx="4.0" dy="4.0" in="blurOut2" result="blurOut3"/><feBlend in="SourceGraphic" in2="blurOut3" mode="normal"/></filter></defs><g><rect fill="#FFFFFF" filter="url(#f1h7ch14c2xyk3)" height="2069.8516" style="stroke:#A80036;stroke-width:1.0;" width="10" x="99.5" y="50.2969"/><rect fill="#FFFFFF" filter="url(#f1h7ch14c2xyk3)" height="30" style="stroke:#A80036;stroke-width:1.0;" width="10" x="1130.5" y="71.4297"/><rect fill="#FFFFFF" filter="url(#f1h7ch14c2xyk3)" height="205.6641" style="stroke:#A80036;stroke-width:1.0;" width="10" x="1130.5" y="370.3594"/><rect fill="#FFFFFF" filter="url(#f1h7ch14c2xyk3)" height="353.9297" style="stroke:#A80036;stroke-width:1.0;" width="10" x="1130.5" y="605.1563"/><rect fill="#FFFFFF" filter="url(#f1h7ch14c2xyk3)" height="205.6641" style="stroke:#A80036;stroke-width:1.0;" width="10" x="1130.5" y="1003.0234"/><rect fill="#FFFFFF" filter="url(#f1h7ch14c2xyk3)" height="353.9297" style="stroke:#A80036;stroke-width:1.0;" width="10" x="1130.5" y="1237.8203"/><rect fill="#FFFFFF" filter="url(#f1h7ch14c2xyk3)" height="294.7969" style="stroke:#A80036;stroke-width:1.0;" width="10" x="1130.5" y="1701.8203"/><rect fill="#FFFFFF" filter="url(#f1h7ch14c2xyk3)" height="88.2656" style="stroke:#A80036;stroke-width:1.0;" width="10" x="1328" y="399.4922"/><rect fill="#FFFFFF" filter="url(#f1h7ch14c2xyk3)" height="88.2656" style="stroke:#A80036;stroke-width:1.0;" width="10" x="1328" y="1032.1563"/><rect fill="#FFFFFF" filter="url(#f1h7ch14c2xyk3)" height="58.2656" style="stroke:#A80036;stroke-width:1.0;" width="10" x="1328" y="2032.75"/><rect fill="#FFFFFF" filter="url(#f1h7ch14c2xyk3)" height="59.1328" style="stroke:#A80036;stroke-width:1.0;" width="10" x="1499" y="428.625"/><rect fill="#FFFFFF" filter="url(#f1h7ch14c2xyk3)" height="59.1328" style="stroke:#A80036;stroke-width:1.0;" width="10" x="1499" y="1061.2891"/><rect fill="#FFFFFF" filter="url(#f1h7ch14c2xyk3)" height="29.1328" style="stroke:#A80036;stroke-width:1.0;" width="10" x="1499" y="2061.8828"/><rect fill="#FFFFFF" filter="url(#f1h7ch14c2xyk3)" height="30" style="stroke:#A80036;stroke-width:1.0;" width="10" x="1682" y="1090.4219"/><rect fill="#FFFFFF" filter="url(#f1h7ch14c2xyk3)" height="30" style="stroke:#A80036;stroke-width:1.0;" width="10" x="1682" y="1149.5547"/><rect fill="#FFFFFF" filter="url(#f1h7ch14c2xyk3)" height="30" style="stroke:#A80036;stroke-width:1.0;" width="10" x="1862" y="457.7578"/><rect fill="#FFFFFF" filter="url(#f1h7ch14c2xyk3)" height="30" style="stroke:#A80036;stroke-width:1.0;" width="10" x="1862" y="516.8906"/><rect fill="#FFFFFF" filter="url(#f1h7ch14c2xyk3)" height="30" style="stroke:#A80036;stroke-width:1.0;" width="10" x="2072.5" y="196.8281"/><rect fill="#FFFFFF" filter="url(#f1h7ch14c2xyk3)" height="30" style="stroke:#A80036;stroke-width:1.0;" width="10" x="2072.5" y="287.0938"/><rect fill="#FFFFFF" filter="url(#f1h7ch14c2xyk3)" height="30" style="stroke:#A80036;stroke-width:1.0;" width="10" x="2274.5" y="1642.6875"/><rect fill="#FFFFFF" filter="url(#f1h7ch14c2xyk3)" height="30" style="stroke:#A80036;stroke-width:1.0;" width="10" x="2400.5" y="634.2891"/><rect fill="#FFFFFF" filter="url(#f1h7ch14c2xyk3)" height="30" style="stroke:#A80036;stroke-width:1.0;" width="10" x="2400.5" y="693.4219"/><rect fill="#FFFFFF" filter="url(#f1h7ch14c2xyk3)" height="30" style="stroke:#A80036;stroke-width:1.0;" width="10" x="2400.5" y="1266.9531"/><rect fill="#FFFFFF" filter="url(#f1h7ch14c2xyk3)" height="30" style="stroke:#A80036;stroke-width:1.0;" width="10" x="2400.5" y="1326.0859"/><rect fill="#FFFFFF" filter="url(#f1h7ch14c2xyk3)" height="30" style="stroke:#A80036;stroke-width:1.0;" width="10" x="2400.5" y="1730.9531"/><rect fill="#FFFFFF" filter="url(#f1h7ch14c2xyk3)" height="30" style="stroke:#A80036;stroke-width:1.0;" width="10" x="2505.5" y="870.8203"/><rect fill="#FFFFFF" filter="url(#f1h7ch14c2xyk3)" height="30" style="stroke:#A80036;stroke-width:1.0;" width="10" x="2505.5" y="1503.4844"/><rect fill="#FFFFFF" filter="url(#f1h7ch14c2xyk3)" height="30" style="stroke:#A80036;stroke-width:1.0;" width="10" x="2505.5" y="1908.3516"/><rect fill="#FFFFFF" filter="url(#f1h7ch14c2xyk3)" height="30" style="stroke:#A80036;stroke-width:1.0;" width="10" x="2644.5" y="752.5547"/><rect fill="#FFFFFF" filter="url(#f1h7ch14c2xyk3)" height="30" style="stroke:#A80036;stroke-width:1.0;" width="10" x="2644.5" y="1385.2188"/><rect fill="#FFFFFF" filter="url(#f1h7ch14c2xyk3)" height="30" style="stroke:#A80036;stroke-width:1.0;" width="10" x="2644.5" y="1790.0859"/><rect fill="#FFFFFF" filter="url(#f1h7ch14c2xyk3)" height="30" style="stroke:#A80036;stroke-width:1.0;" width="10" x="2821.5" y="811.6875"/><rect fill="#FFFFFF" filter="url(#f1h7ch14c2xyk3)" height="30" style="stroke:#A80036;stroke-width:1.0;" width="10" x="2821.5" y="1444.3516"/><rect fill="#FFFFFF" filter="url(#f1h7ch14c2xyk3)" height="30" style="stroke:#A80036;stroke-width:1.0;" width="10" x="2821.5" y="1849.2188"/><rect fill="#FFFFFF" filter="url(#f1h7ch14c2xyk3)" height="29.1328" style="stroke:#A80036;stroke-width:1.0;" width="10" x="2953" y="929.9531"/><rect fill="#FFFFFF" filter="url(#f1h7ch14c2xyk3)" height="29.1328" style="stroke:#A80036;stroke-width:1.0;" width="10" x="2953" y="1562.6172"/><rect fill="#FFFFFF" filter="url(#f1h7ch14c2xyk3)" height="29.1328" style="stroke:#A80036;stroke-width:1.0;" width="10" x="2953" y="1967.4844"/><rect fill="#FFFFFF" filter="url(#f1h7ch14c2xyk3)" height="29.1328" style="stroke:#A80036;stroke-width:1.0;" width="10" x="3027" y="2091.0156"/><rect fill="#FFFFFF" filter="url(#f1h7ch14c2xyk3)" height="76.2656" style="stroke:#000000;stroke-width:2.0;" width="2193" x="20" y="158.5625"/><rect fill="#FFFFFF" filter="url(#f1h7ch14c2xyk3)" height="1755.7891" style="stroke:#000000;stroke-width:2.0;" width="3006" x="10" y="248.8281"/><rect fill="#FFFFFF" filter="url(#f1h7ch14c2xyk3)" height="1267.6563" style="stroke:#000000;stroke-width:2.0;" width="2986" x="20" y="332.0938"/><rect fill="#FFFFFF" height="632.6641" style="stroke:none;stroke-width:1.0;" width="2986" x="20" y="967.0859"/><rect fill="#FFFFFF" height="397.8672" style="stroke:none;stroke-width:1.0;" width="3006" x="10" y="1606.75"/><line style="stroke:#A80036;stroke-width:1.0;stroke-dasharray:5.0,5.0;" x1="104" x2="104" y1="40.2969" y2="2138.1484"/><line style="stroke:#A80036;stroke-width:1.0;stroke-dasharray:5.0,5.0;" x1="1135" x2="1135" y1="40.2969" y2="2138.1484"/><line style="stroke:#A80036;stroke-width:1.0;stroke-dasharray:5.0,5.0;" x1="1333" x2="1333" y1="40.2969" y2="2138.1484"/><line style="stroke:#A80036;stroke-width:1.0;stroke-dasharray:5.0,5.0;" x1="1504" x2="1504" y1="40.2969" y2="2138.1484"/><line style="stroke:#A80036;stroke-width:1.0;stroke-dasharray:5.0,5.0;" x1="1687" x2="1687" y1="40.2969" y2="2138.1484"/><line style="stroke:#A80036;stroke-width:1.0;stroke-dasharray:5.0,5.0;" x1="1867" x2="1867" y1="40.2969" y2="2138.1484"/><line style="stroke:#A80036;stroke-width:1.0;stroke-dasharray:5.0,5.0;" x1="2077" x2="2077" y1="40.2969" y2="2138.1484"/><line style="stroke:#A80036;stroke-width:1.0;stroke-dasharray:5.0,5.0;" x1="2279" x2="2279" y1="40.2969" y2="2138.1484"/><line style="stroke:#A80036;stroke-width:1.0;stroke-dasharray:5.0,5.0;" x1="2405" x2="2405" y1="40.2969" y2="2138.1484"/><line style="stroke:#A80036;stroke-width:1.0;stroke-dasharray:5.0,5.0;" x1="2510" x2="2510" y1="40.2969" y2="2138.1484"/><line style="stroke:#A80036;stroke-width:1.0;stroke-dasharray:5.0,5.0;" x1="2649" x2="2649" y1="40.2969" y2="2138.1484"/><line style="stroke:#A80036;stroke-width:1.0;stroke-dasharray:5.0,5.0;" x1="2826" x2="2826" y1="40.2969" y2="2138.1484"/><line style="stroke:#A80036;stroke-width:1.0;stroke-dasharray:5.0,5.0;" x1="2958" x2="2958" y1="40.2969" y2="2138.1484"/><line style="stroke:#A80036;stroke-width:1.0;stroke-dasharray:5.0,5.0;" x1="3032" x2="3032" y1="40.2969" y2="2138.1484"/><rect fill="#FEFECE" filter="url(#f1h7ch14c2xyk3)" height="30.2969" style="stroke:#A80036;stroke-width:1.5;" width="145" x="30" y="5"/><text fill="#000000" font-family="sans-serif" font-size="14" lengthAdjust="spacing" textLength="131" x="37" y="24.9951">:RegistarServicoUI</text><rect fill="#FEFECE" filter="url(#f1h7ch14c2xyk3)" height="30.2969" style="stroke:#A80036;stroke-width:1.5;" width="145" x="30" y="2137.1484"/><text fill="#000000" font-family="sans-serif" font-size="14" lengthAdjust="spacing" textLength="131" x="37" y="2157.1436">:RegistarServicoUI</text><rect fill="#FEFECE" filter="url(#f1h7ch14c2xyk3)" height="30.2969" style="stroke:#A80036;stroke-width:1.5;" width="205" x="1031" y="5"/><text fill="#000000" font-family="sans-serif" font-size="14" lengthAdjust="spacing" textLength="191" x="1038" y="24.9951">:RegistarServicoController</text><rect fill="#FEFECE" filter="url(#f1h7ch14c2xyk3)" height="30.2969" style="stroke:#A80036;stroke-width:1.5;" width="205" x="1031" y="2137.1484"/><text fill="#000000" font-family="sans-serif" font-size="14" lengthAdjust="spacing" textLength="191" x="1038" y="2157.1436">:RegistarServicoController</text><rect fill="#FEFECE" filter="url(#f1h7ch14c2xyk3)" height="30.2969" style="stroke:#A80036;stroke-width:1.5;" width="162" x="1250" y="5"/><text fill="#000000" font-family="sans-serif" font-size="14" lengthAdjust="spacing" textLength="148" x="1257" y="24.9951">:PersistenceContext</text><rect fill="#FEFECE" filter="url(#f1h7ch14c2xyk3)" height="30.2969" style="stroke:#A80036;stroke-width:1.5;" width="162" x="1250" y="2137.1484"/><text fill="#000000" font-family="sans-serif" font-size="14" lengthAdjust="spacing" textLength="148" x="1257" y="2157.1436">:PersistenceContext</text><rect fill="#FEFECE" filter="url(#f1h7ch14c2xyk3)" height="30.2969" style="stroke:#A80036;stroke-width:1.5;" width="152" x="1426" y="5"/><text fill="#000000" font-family="sans-serif" font-size="14" lengthAdjust="spacing" textLength="138" x="1433" y="24.9951">:RepositoryFactory</text><rect fill="#FEFECE" filter="url(#f1h7ch14c2xyk3)" height="30.2969" style="stroke:#A80036;stroke-width:1.5;" width="152" x="1426" y="2137.1484"/><text fill="#000000" font-family="sans-serif" font-size="14" lengthAdjust="spacing" textLength="138" x="1433" y="2157.1436">:RepositoryFactory</text><rect fill="#FEFECE" filter="url(#f1h7ch14c2xyk3)" height="30.2969" style="stroke:#A80036;stroke-width:1.5;" width="186" x="1592" y="5"/><text fill="#000000" font-family="sans-serif" font-size="14" lengthAdjust="spacing" textLength="172" x="1599" y="24.9951">:ColaboradorRepository</text><rect fill="#FEFECE" filter="url(#f1h7ch14c2xyk3)" height="30.2969" style="stroke:#A80036;stroke-width:1.5;" width="186" x="1592" y="2137.1484"/><text fill="#000000" font-family="sans-serif" font-size="14" lengthAdjust="spacing" textLength="172" x="1599" y="2157.1436">:ColaboradorRepository</text><rect fill="#FEFECE" filter="url(#f1h7ch14c2xyk3)" height="30.2969" style="stroke:#A80036;stroke-width:1.5;" width="146" x="1792" y="5"/><text fill="#000000" font-family="sans-serif" font-size="14" lengthAdjust="spacing" textLength="132" x="1799" y="24.9951">:EquipaRepository</text><rect fill="#FEFECE" filter="url(#f1h7ch14c2xyk3)" height="30.2969" style="stroke:#A80036;stroke-width:1.5;" width="146" x="1792" y="2137.1484"/><text fill="#000000" font-family="sans-serif" font-size="14" lengthAdjust="spacing" textLength="132" x="1799" y="2157.1436">:EquipaRepository</text><rect fill="#FEFECE" filter="url(#f1h7ch14c2xyk3)" height="30.2969" style="stroke:#A80036;stroke-width:1.5;" width="247" x="1952" y="5"/><text fill="#000000" font-family="sans-serif" font-size="14" lengthAdjust="spacing" textLength="233" x="1959" y="24.9951">:AtributosEmFormularioSettings</text><rect fill="#FEFECE" filter="url(#f1h7ch14c2xyk3)" height="30.2969" style="stroke:#A80036;stroke-width:1.5;" width="247" x="1952" y="2137.1484"/><text fill="#000000" font-family="sans-serif" font-size="14" lengthAdjust="spacing" textLength="233" x="1959" y="2157.1436">:AtributosEmFormularioSettings</text><rect fill="#FEFECE" filter="url(#f1h7ch14c2xyk3)" height="30.2969" style="stroke:#A80036;stroke-width:1.5;" width="129" x="2213" y="5"/><text fill="#000000" font-family="sans-serif" font-size="14" lengthAdjust="spacing" textLength="115" x="2220" y="24.9951">:ScriptDesejado</text><rect fill="#FEFECE" filter="url(#f1h7ch14c2xyk3)" height="30.2969" style="stroke:#A80036;stroke-width:1.5;" width="129" x="2213" y="2137.1484"/><text fill="#000000" font-family="sans-serif" font-size="14" lengthAdjust="spacing" textLength="115" x="2220" y="2157.1436">:ScriptDesejado</text><rect fill="#FEFECE" filter="url(#f1h7ch14c2xyk3)" height="30.2969" style="stroke:#A80036;stroke-width:1.5;" width="95" x="2356" y="5"/><text fill="#000000" font-family="sans-serif" font-size="14" lengthAdjust="spacing" textLength="81" x="2363" y="24.9951">:Formulario</text><rect fill="#FEFECE" filter="url(#f1h7ch14c2xyk3)" height="30.2969" style="stroke:#A80036;stroke-width:1.5;" width="95" x="2356" y="2137.1484"/><text fill="#000000" font-family="sans-serif" font-size="14" lengthAdjust="spacing" textLength="81" x="2363" y="2157.1436">:Formulario</text><rect fill="#FEFECE" filter="url(#f1h7ch14c2xyk3)" height="30.2969" style="stroke:#A80036;stroke-width:1.5;" width="87" x="2465" y="5"/><text fill="#000000" font-family="sans-serif" font-size="14" lengthAdjust="spacing" textLength="73" x="2472" y="24.9951">:Workflow</text><rect fill="#FEFECE" filter="url(#f1h7ch14c2xyk3)" height="30.2969" style="stroke:#A80036;stroke-width:1.5;" width="87" x="2465" y="2137.1484"/><text fill="#000000" font-family="sans-serif" font-size="14" lengthAdjust="spacing" textLength="73" x="2472" y="2157.1436">:Workflow</text><rect fill="#FEFECE" filter="url(#f1h7ch14c2xyk3)" height="30.2969" style="stroke:#A80036;stroke-width:1.5;" width="163" x="2566" y="5"/><text fill="#000000" font-family="sans-serif" font-size="14" lengthAdjust="spacing" textLength="149" x="2573" y="24.9951">:AtividadeAprovacao</text><rect fill="#FEFECE" filter="url(#f1h7ch14c2xyk3)" height="30.2969" style="stroke:#A80036;stroke-width:1.5;" width="163" x="2566" y="2137.1484"/><text fill="#000000" font-family="sans-serif" font-size="14" lengthAdjust="spacing" textLength="149" x="2573" y="2157.1436">:AtividadeAprovacao</text><rect fill="#FEFECE" filter="url(#f1h7ch14c2xyk3)" height="30.2969" style="stroke:#A80036;stroke-width:1.5;" width="163" x="2743" y="5"/><text fill="#000000" font-family="sans-serif" font-size="14" lengthAdjust="spacing" textLength="149" x="2750" y="24.9951">:AtividadeRealizacao</text><rect fill="#FEFECE" filter="url(#f1h7ch14c2xyk3)" height="30.2969" style="stroke:#A80036;stroke-width:1.5;" width="163" x="2743" y="2137.1484"/><text fill="#000000" font-family="sans-serif" font-size="14" lengthAdjust="spacing" textLength="149" x="2750" y="2157.1436">:AtividadeRealizacao</text><rect fill="#FEFECE" filter="url(#f1h7ch14c2xyk3)" height="30.2969" style="stroke:#A80036;stroke-width:1.5;" width="72" x="2920" y="5"/><text fill="#000000" font-family="sans-serif" font-size="14" lengthAdjust="spacing" textLength="58" x="2927" y="24.9951">:Servico</text><rect fill="#FEFECE" filter="url(#f1h7ch14c2xyk3)" height="30.2969" style="stroke:#A80036;stroke-width:1.5;" width="72" x="2920" y="2137.1484"/><text fill="#000000" font-family="sans-serif" font-size="14" lengthAdjust="spacing" textLength="58" x="2927" y="2157.1436">:Servico</text><rect fill="#FEFECE" filter="url(#f1h7ch14c2xyk3)" height="30.2969" style="stroke:#A80036;stroke-width:1.5;" width="48" x="3006" y="5"/><text fill="#000000" font-family="sans-serif" font-size="14" lengthAdjust="spacing" textLength="34" x="3013" y="24.9951">repo</text><rect fill="#FEFECE" filter="url(#f1h7ch14c2xyk3)" height="30.2969" style="stroke:#A80036;stroke-width:1.5;" width="48" x="3006" y="2137.1484"/><text fill="#000000" font-family="sans-serif" font-size="14" lengthAdjust="spacing" textLength="34" x="3013" y="2157.1436">repo</text><rect fill="#FFFFFF" filter="url(#f1h7ch14c2xyk3)" height="2069.8516" style="stroke:#A80036;stroke-width:1.0;" width="10" x="99.5" y="50.2969"/><rect fill="#FFFFFF" filter="url(#f1h7ch14c2xyk3)" height="30" style="stroke:#A80036;stroke-width:1.0;" width="10" x="1130.5" y="71.4297"/><rect fill="#FFFFFF" filter="url(#f1h7ch14c2xyk3)" height="205.6641" style="stroke:#A80036;stroke-width:1.0;" width="10" x="1130.5" y="370.3594"/><rect fill="#FFFFFF" filter="url(#f1h7ch14c2xyk3)" height="353.9297" style="stroke:#A80036;stroke-width:1.0;" width="10" x="1130.5" y="605.1563"/><rect fill="#FFFFFF" filter="url(#f1h7ch14c2xyk3)" height="205.6641" style="stroke:#A80036;stroke-width:1.0;" width="10" x="1130.5" y="1003.0234"/><rect fill="#FFFFFF" filter="url(#f1h7ch14c2xyk3)" height="353.9297" style="stroke:#A80036;stroke-width:1.0;" width="10" x="1130.5" y="1237.8203"/><rect fill="#FFFFFF" filter="url(#f1h7ch14c2xyk3)" height="294.7969" style="stroke:#A80036;stroke-width:1.0;" width="10" x="1130.5" y="1701.8203"/><rect fill="#FFFFFF" filter="url(#f1h7ch14c2xyk3)" height="88.2656" style="stroke:#A80036;stroke-width:1.0;" width="10" x="1328" y="399.4922"/><rect fill="#FFFFFF" filter="url(#f1h7ch14c2xyk3)" height="88.2656" style="stroke:#A80036;stroke-width:1.0;" width="10" x="1328" y="1032.1563"/><rect fill="#FFFFFF" filter="url(#f1h7ch14c2xyk3)" height="58.2656" style="stroke:#A80036;stroke-width:1.0;" width="10" x="1328" y="2032.75"/><rect fill="#FFFFFF" filter="url(#f1h7ch14c2xyk3)" height="59.1328" style="stroke:#A80036;stroke-width:1.0;" width="10" x="1499" y="428.625"/><rect fill="#FFFFFF" filter="url(#f1h7ch14c2xyk3)" height="59.1328" style="stroke:#A80036;stroke-width:1.0;" width="10" x="1499" y="1061.2891"/><rect fill="#FFFFFF" filter="url(#f1h7ch14c2xyk3)" height="29.1328" style="stroke:#A80036;stroke-width:1.0;" width="10" x="1499" y="2061.8828"/><rect fill="#FFFFFF" filter="url(#f1h7ch14c2xyk3)" height="30" style="stroke:#A80036;stroke-width:1.0;" width="10" x="1682" y="1090.4219"/><rect fill="#FFFFFF" filter="url(#f1h7ch14c2xyk3)" height="30" style="stroke:#A80036;stroke-width:1.0;" width="10" x="1682" y="1149.5547"/><rect fill="#FFFFFF" filter="url(#f1h7ch14c2xyk3)" height="30" style="stroke:#A80036;stroke-width:1.0;" width="10" x="1862" y="457.7578"/><rect fill="#FFFFFF" filter="url(#f1h7ch14c2xyk3)" height="30" style="stroke:#A80036;stroke-width:1.0;" width="10" x="1862" y="516.8906"/><rect fill="#FFFFFF" filter="url(#f1h7ch14c2xyk3)" height="30" style="stroke:#A80036;stroke-width:1.0;" width="10" x="2072.5" y="196.8281"/><rect fill="#FFFFFF" filter="url(#f1h7ch14c2xyk3)" height="30" style="stroke:#A80036;stroke-width:1.0;" width="10" x="2072.5" y="287.0938"/><rect fill="#FFFFFF" filter="url(#f1h7ch14c2xyk3)" height="30" style="stroke:#A80036;stroke-width:1.0;" width="10" x="2274.5" y="1642.6875"/><rect fill="#FFFFFF" filter="url(#f1h7ch14c2xyk3)" height="30" style="stroke:#A80036;stroke-width:1.0;" width="10" x="2400.5" y="634.2891"/><rect fill="#FFFFFF" filter="url(#f1h7ch14c2xyk3)" height="30" style="stroke:#A80036;stroke-width:1.0;" width="10" x="2400.5" y="693.4219"/><rect fill="#FFFFFF" filter="url(#f1h7ch14c2xyk3)" height="30" style="stroke:#A80036;stroke-width:1.0;" width="10" x="2400.5" y="1266.9531"/><rect fill="#FFFFFF" filter="url(#f1h7ch14c2xyk3)" height="30" style="stroke:#A80036;stroke-width:1.0;" width="10" x="2400.5" y="1326.0859"/><rect fill="#FFFFFF" filter="url(#f1h7ch14c2xyk3)" height="30" style="stroke:#A80036;stroke-width:1.0;" width="10" x="2400.5" y="1730.9531"/><rect fill="#FFFFFF" filter="url(#f1h7ch14c2xyk3)" height="30" style="stroke:#A80036;stroke-width:1.0;" width="10" x="2505.5" y="870.8203"/><rect fill="#FFFFFF" filter="url(#f1h7ch14c2xyk3)" height="30" style="stroke:#A80036;stroke-width:1.0;" width="10" x="2505.5" y="1503.4844"/><rect fill="#FFFFFF" filter="url(#f1h7ch14c2xyk3)" height="30" style="stroke:#A80036;stroke-width:1.0;" width="10" x="2505.5" y="1908.3516"/><rect fill="#FFFFFF" filter="url(#f1h7ch14c2xyk3)" height="30" style="stroke:#A80036;stroke-width:1.0;" width="10" x="2644.5" y="752.5547"/><rect fill="#FFFFFF" filter="url(#f1h7ch14c2xyk3)" height="30" style="stroke:#A80036;stroke-width:1.0;" width="10" x="2644.5" y="1385.2188"/><rect fill="#FFFFFF" filter="url(#f1h7ch14c2xyk3)" height="30" style="stroke:#A80036;stroke-width:1.0;" width="10" x="2644.5" y="1790.0859"/><rect fill="#FFFFFF" filter="url(#f1h7ch14c2xyk3)" height="30" style="stroke:#A80036;stroke-width:1.0;" width="10" x="2821.5" y="811.6875"/><rect fill="#FFFFFF" filter="url(#f1h7ch14c2xyk3)" height="30" style="stroke:#A80036;stroke-width:1.0;" width="10" x="2821.5" y="1444.3516"/><rect fill="#FFFFFF" filter="url(#f1h7ch14c2xyk3)" height="30" style="stroke:#A80036;stroke-width:1.0;" width="10" x="2821.5" y="1849.2188"/><rect fill="#FFFFFF" filter="url(#f1h7ch14c2xyk3)" height="29.1328" style="stroke:#A80036;stroke-width:1.0;" width="10" x="2953" y="929.9531"/><rect fill="#FFFFFF" filter="url(#f1h7ch14c2xyk3)" height="29.1328" style="stroke:#A80036;stroke-width:1.0;" width="10" x="2953" y="1562.6172"/><rect fill="#FFFFFF" filter="url(#f1h7ch14c2xyk3)" height="29.1328" style="stroke:#A80036;stroke-width:1.0;" width="10" x="2953" y="1967.4844"/><rect fill="#FFFFFF" filter="url(#f1h7ch14c2xyk3)" height="29.1328" style="stroke:#A80036;stroke-width:1.0;" width="10" x="3027" y="2091.0156"/><polygon fill="#A80036" points="1118.5,67.4297,1128.5,71.4297,1118.5,75.4297,1122.5,71.4297" style="stroke:#A80036;stroke-width:1.0;"/><line style="stroke:#A80036;stroke-width:1.0;" x1="109.5" x2="1124.5" y1="71.4297" y2="71.4297"/><text fill="#000000" font-family="sans-serif" font-size="13" lengthAdjust="spacing" textLength="41" x="116.5" y="66.3638">create</text><line style="stroke:#A80036;stroke-width:1.0;" x1="109.5" x2="151.5" y1="130.5625" y2="130.5625"/><line style="stroke:#A80036;stroke-width:1.0;" x1="151.5" x2="151.5" y1="130.5625" y2="143.5625"/><line style="stroke:#A80036;stroke-width:1.0;" x1="110.5" x2="151.5" y1="143.5625" y2="143.5625"/><polygon fill="#A80036" points="120.5,139.5625,110.5,143.5625,120.5,147.5625,116.5,143.5625" style="stroke:#A80036;stroke-width:1.0;"/><text fill="#000000" font-family="sans-serif" font-size="13" lengthAdjust="spacing" textLength="61" x="116.5" y="125.4966">doShow()</text><path d="M20,158.5625 L92,158.5625 L92,165.5625 L82,175.5625 L20,175.5625 L20,158.5625 " fill="#EEEEEE" style="stroke:#000000;stroke-width:1.0;"/><rect fill="none" height="76.2656" style="stroke:#000000;stroke-width:2.0;" width="2193" x="20" y="158.5625"/><text fill="#000000" font-family="sans-serif" font-size="13" font-weight="bold" lengthAdjust="spacing" textLength="27" x="35" y="171.6294">opt</text><text fill="#000000" font-family="sans-serif" font-size="11" font-weight="bold" lengthAdjust="spacing" textLength="480" x="107" y="170.7729">[no caso em que GSHD opta por introduzir uma atividade de aprovação]</text><polygon fill="#A80036" points="2060.5,192.8281,2070.5,196.8281,2060.5,200.8281,2064.5,196.8281" style="stroke:#A80036;stroke-width:1.0;"/><line style="stroke:#A80036;stroke-width:1.0;" x1="109.5" x2="2066.5" y1="196.8281" y2="196.8281"/><text fill="#000000" font-family="sans-serif" font-size="13" lengthAdjust="spacing" textLength="309" x="116.5" y="191.7622">lstAtriAprovacao = criarAtributosEmFormulario()</text><path d="M10,248.8281 L76,248.8281 L76,255.8281 L66,265.8281 L10,265.8281 L10,248.8281 " fill="#EEEEEE" style="stroke:#000000;stroke-width:1.0;"/><rect fill="none" height="1755.7891" style="stroke:#000000;stroke-width:2.0;" width="3006" x="10" y="248.8281"/><text fill="#000000" font-family="sans-serif" font-size="13" font-weight="bold" lengthAdjust="spacing" textLength="21" x="25" y="261.895">alt</text><text fill="#000000" font-family="sans-serif" font-size="11" font-weight="bold" lengthAdjust="spacing" textLength="296" x="91" y="261.0386">[no caso da resolução escolhida ser manual]</text><polygon fill="#A80036" points="2060.5,283.0938,2070.5,287.0938,2060.5,291.0938,2064.5,287.0938" style="stroke:#A80036;stroke-width:1.0;"/><line style="stroke:#A80036;stroke-width:1.0;" x1="109.5" x2="2066.5" y1="287.0938" y2="287.0938"/><text fill="#000000" font-family="sans-serif" font-size="13" lengthAdjust="spacing" textLength="276" x="116.5" y="282.0278">lstAtriAjuda = criarAtributosEmFormulario()</text><path d="M20,332.0938 L86,332.0938 L86,339.0938 L76,349.0938 L20,349.0938 L20,332.0938 " fill="#EEEEEE" style="stroke:#000000;stroke-width:1.0;"/><rect fill="none" height="1267.6563" style="stroke:#000000;stroke-width:2.0;" width="2986" x="20" y="332.0938"/><text fill="#000000" font-family="sans-serif" font-size="13" font-weight="bold" lengthAdjust="spacing" textLength="21" x="35" y="345.1606">alt</text><text fill="#000000" font-family="sans-serif" font-size="11" font-weight="bold" lengthAdjust="spacing" textLength="627" x="101" y="344.3042">[no caso em que o GSHD opta por introduzir uma equipa com responsabilidades de resolução]</text><polygon fill="#A80036" points="1118.5,366.3594,1128.5,370.3594,1118.5,374.3594,1122.5,370.3594" style="stroke:#A80036;stroke-width:1.0;"/><line style="stroke:#A80036;stroke-width:1.0;" x1="109.5" x2="1124.5" y1="370.3594" y2="370.3594"/><text fill="#000000" font-family="sans-serif" font-size="13" lengthAdjust="spacing" textLength="123" x="116.5" y="365.2935">equipasDisponiveis</text><polygon fill="#A80036" points="1316,395.4922,1326,399.4922,1316,403.4922,1320,399.4922" style="stroke:#A80036;stroke-width:1.0;"/><line style="stroke:#A80036;stroke-width:1.0;" x1="1140.5" x2="1322" y1="399.4922" y2="399.4922"/><text fill="#000000" font-family="sans-serif" font-size="13" lengthAdjust="spacing" textLength="85" x="1147.5" y="394.4263">repositories()</text><polygon fill="#A80036" points="1487,424.625,1497,428.625,1487,432.625,1491,428.625" style="stroke:#A80036;stroke-width:1.0;"/><line style="stroke:#A80036;stroke-width:1.0;" x1="1338" x2="1493" y1="428.625" y2="428.625"/><text fill="#000000" font-family="sans-serif" font-size="13" lengthAdjust="spacing" textLength="41" x="1345" y="423.5591">create</text><polygon fill="#A80036" points="1850,453.7578,1860,457.7578,1850,461.7578,1854,457.7578" style="stroke:#A80036;stroke-width:1.0;"/><line style="stroke:#A80036;stroke-width:1.0;" x1="1509" x2="1856" y1="457.7578" y2="457.7578"/><text fill="#000000" font-family="sans-serif" font-size="13" lengthAdjust="spacing" textLength="41" x="1516" y="452.6919">create</text><polygon fill="#A80036" points="1850,512.8906,1860,516.8906,1850,520.8906,1854,516.8906" style="stroke:#A80036;stroke-width:1.0;"/><line style="stroke:#A80036;stroke-width:1.0;" x1="1140.5" x2="1856" y1="516.8906" y2="516.8906"/><text fill="#000000" font-family="sans-serif" font-size="13" lengthAdjust="spacing" textLength="104" x="1147.5" y="511.8247">allEquipasAtivas</text><polygon fill="#A80036" points="120.5,572.0234,110.5,576.0234,120.5,580.0234,116.5,576.0234" style="stroke:#A80036;stroke-width:1.0;"/><line style="stroke:#A80036;stroke-width:1.0;stroke-dasharray:2.0,2.0;" x1="114.5" x2="1134.5" y1="576.0234" y2="576.0234"/><text fill="#000000" font-family="sans-serif" font-size="13" lengthAdjust="spacing" textLength="270" x="126.5" y="570.9575">responsaveisConclusao = selectorEquipas</text><polygon fill="#A80036" points="1118.5,601.1563,1128.5,605.1563,1118.5,609.1563,1122.5,605.1563" style="stroke:#A80036;stroke-width:1.0;"/><line style="stroke:#A80036;stroke-width:1.0;" x1="109.5" x2="1124.5" y1="605.1563" y2="605.1563"/><text fill="#000000" font-family="sans-serif" font-size="13" lengthAdjust="spacing" textLength="1002" x="116.5" y="600.0903">registarServico(...,responsavelAprovacao ,strNomeFormularioAjuda, lstAtriAjuda, responsaveisConclusao, strNomeFormularioAprovacaoa, lstAtriAprovacao )</text><polygon fill="#A80036" points="2388.5,630.2891,2398.5,634.2891,2388.5,638.2891,2392.5,634.2891" style="stroke:#A80036;stroke-width:1.0;"/><line style="stroke:#A80036;stroke-width:1.0;" x1="1140.5" x2="2394.5" y1="634.2891" y2="634.2891"/><text fill="#000000" font-family="sans-serif" font-size="13" lengthAdjust="spacing" textLength="469" x="1147.5" y="629.2231">formularioAjuda = new Formulario(strNomeFormularioAjuda, lstAtriAjuda)</text><polygon fill="#A80036" points="2388.5,689.4219,2398.5,693.4219,2388.5,697.4219,2392.5,693.4219" style="stroke:#A80036;stroke-width:1.0;"/><line style="stroke:#A80036;stroke-width:1.0;" x1="1140.5" x2="2394.5" y1="693.4219" y2="693.4219"/><text fill="#000000" font-family="sans-serif" font-size="13" lengthAdjust="spacing" textLength="568" x="1147.5" y="688.356">formularioAprovacao = new Formulario(strNomeFormularioAprovacao, lstAtriAprovacao)</text><polygon fill="#A80036" points="2632.5,748.5547,2642.5,752.5547,2632.5,756.5547,2636.5,752.5547" style="stroke:#A80036;stroke-width:1.0;"/><line style="stroke:#A80036;stroke-width:1.0;" x1="1140.5" x2="2638.5" y1="752.5547" y2="752.5547"/><text fill="#000000" font-family="sans-serif" font-size="13" lengthAdjust="spacing" textLength="606" x="1147.5" y="747.4888">atividadeAprovacao = new AtividadeAprovacao(formularioAprovacao, responsavelAprovacao)</text><polygon fill="#A80036" points="2809.5,807.6875,2819.5,811.6875,2809.5,815.6875,2813.5,811.6875" style="stroke:#A80036;stroke-width:1.0;"/><line style="stroke:#A80036;stroke-width:1.0;" x1="1140.5" x2="2815.5" y1="811.6875" y2="811.6875"/><text fill="#000000" font-family="sans-serif" font-size="13" lengthAdjust="spacing" textLength="576" x="1147.5" y="806.6216">atividadeRealizacao = new atividadeRealizacao(formularioAjuda, responsaveisConclusao)</text><polygon fill="#A80036" points="2493.5,866.8203,2503.5,870.8203,2493.5,874.8203,2497.5,870.8203" style="stroke:#A80036;stroke-width:1.0;"/><line style="stroke:#A80036;stroke-width:1.0;" x1="1140.5" x2="2499.5" y1="870.8203" y2="870.8203"/><text fill="#000000" font-family="sans-serif" font-size="13" lengthAdjust="spacing" textLength="435" x="1147.5" y="865.7544">workflow = new workflow(atividadeAprovacao,atividadeRealizacao)</text><polygon fill="#A80036" points="2941,925.9531,2951,929.9531,2941,933.9531,2945,929.9531" style="stroke:#A80036;stroke-width:1.0;"/><line style="stroke:#A80036;stroke-width:1.0;" x1="1140.5" x2="2947" y1="929.9531" y2="929.9531"/><text fill="#000000" font-family="sans-serif" font-size="13" lengthAdjust="spacing" textLength="155" x="1147.5" y="924.8872">newServico = create(...)</text><polygon fill="#A80036" points="2946,955.0859,2956,959.0859,2946,963.0859,2950,959.0859" style="stroke:#A80036;stroke-width:1.0;"/><line style="stroke:#A80036;stroke-width:1.0;" x1="1135.5" x2="2952" y1="959.0859" y2="959.0859"/><text fill="#000000" font-family="sans-serif" font-size="13" lengthAdjust="spacing" textLength="152" x="1142.5" y="954.02">addWorkflow(workflow)</text><line style="stroke:#000000;stroke-width:1.0;stroke-dasharray:2.0,2.0;" x1="20" x2="3006" y1="968.0859" y2="968.0859"/><text fill="#000000" font-family="sans-serif" font-size="11" font-weight="bold" lengthAdjust="spacing" textLength="657" x="25" y="978.2964">[no caso em que o GSHD opta por introduzir um colaborador com responsabilidades de resolução]</text><polygon fill="#A80036" points="1118.5,999.0234,1128.5,1003.0234,1118.5,1007.0234,1122.5,1003.0234" style="stroke:#A80036;stroke-width:1.0;"/><line style="stroke:#A80036;stroke-width:1.0;" x1="109.5" x2="1124.5" y1="1003.0234" y2="1003.0234"/><text fill="#000000" font-family="sans-serif" font-size="13" lengthAdjust="spacing" textLength="164" x="116.5" y="997.9575">colaboradoresDisponiveis</text><polygon fill="#A80036" points="1316,1028.1563,1326,1032.1563,1316,1036.1563,1320,1032.1563" style="stroke:#A80036;stroke-width:1.0;"/><line style="stroke:#A80036;stroke-width:1.0;" x1="1140.5" x2="1322" y1="1032.1563" y2="1032.1563"/><text fill="#000000" font-family="sans-serif" font-size="13" lengthAdjust="spacing" textLength="85" x="1147.5" y="1027.0903">repositories()</text><polygon fill="#A80036" points="1487,1057.2891,1497,1061.2891,1487,1065.2891,1491,1061.2891" style="stroke:#A80036;stroke-width:1.0;"/><line style="stroke:#A80036;stroke-width:1.0;" x1="1338" x2="1493" y1="1061.2891" y2="1061.2891"/><text fill="#000000" font-family="sans-serif" font-size="13" lengthAdjust="spacing" textLength="41" x="1345" y="1056.2231">create</text><polygon fill="#A80036" points="1670,1086.4219,1680,1090.4219,1670,1094.4219,1674,1090.4219" style="stroke:#A80036;stroke-width:1.0;"/><line style="stroke:#A80036;stroke-width:1.0;" x1="1509" x2="1676" y1="1090.4219" y2="1090.4219"/><text fill="#000000" font-family="sans-serif" font-size="13" lengthAdjust="spacing" textLength="41" x="1516" y="1085.356">create</text><polygon fill="#A80036" points="1670,1145.5547,1680,1149.5547,1670,1153.5547,1674,1149.5547" style="stroke:#A80036;stroke-width:1.0;"/><line style="stroke:#A80036;stroke-width:1.0;" x1="1140.5" x2="1676" y1="1149.5547" y2="1149.5547"/><text fill="#000000" font-family="sans-serif" font-size="13" lengthAdjust="spacing" textLength="107" x="1147.5" y="1144.4888">allColaboradores</text><polygon fill="#A80036" points="120.5,1204.6875,110.5,1208.6875,120.5,1212.6875,116.5,1208.6875" style="stroke:#A80036;stroke-width:1.0;"/><line style="stroke:#A80036;stroke-width:1.0;stroke-dasharray:2.0,2.0;" x1="114.5" x2="1134.5" y1="1208.6875" y2="1208.6875"/><text fill="#000000" font-family="sans-serif" font-size="13" lengthAdjust="spacing" textLength="306" x="126.5" y="1203.6216">responsavelConclusao = selectorColaboradores</text><polygon fill="#A80036" points="1118.5,1233.8203,1128.5,1237.8203,1118.5,1241.8203,1122.5,1237.8203" style="stroke:#A80036;stroke-width:1.0;"/><line style="stroke:#A80036;stroke-width:1.0;" x1="109.5" x2="1124.5" y1="1237.8203" y2="1237.8203"/><text fill="#000000" font-family="sans-serif" font-size="13" lengthAdjust="spacing" textLength="840" x="116.5" y="1232.7544">registarServico(...,strNomeFormularioAjuda, lstAtriAjuda, responsavelConclusao, strNomeFormularioAprovacaoa, lstAtriAprovacao )</text><polygon fill="#A80036" points="2388.5,1262.9531,2398.5,1266.9531,2388.5,1270.9531,2392.5,1266.9531" style="stroke:#A80036;stroke-width:1.0;"/><line style="stroke:#A80036;stroke-width:1.0;" x1="1140.5" x2="2394.5" y1="1266.9531" y2="1266.9531"/><text fill="#000000" font-family="sans-serif" font-size="13" lengthAdjust="spacing" textLength="469" x="1147.5" y="1261.8872">formularioAjuda = new Formulario(strNomeFormularioAjuda, lstAtriAjuda)</text><polygon fill="#A80036" points="2388.5,1322.0859,2398.5,1326.0859,2388.5,1330.0859,2392.5,1326.0859" style="stroke:#A80036;stroke-width:1.0;"/><line style="stroke:#A80036;stroke-width:1.0;" x1="1140.5" x2="2394.5" y1="1326.0859" y2="1326.0859"/><text fill="#000000" font-family="sans-serif" font-size="13" lengthAdjust="spacing" textLength="568" x="1147.5" y="1321.02">formularioAprovacao = new Formulario(strNomeFormularioAprovacao, lstAtriAprovacao)</text><polygon fill="#A80036" points="2632.5,1381.2188,2642.5,1385.2188,2632.5,1389.2188,2636.5,1385.2188" style="stroke:#A80036;stroke-width:1.0;"/><line style="stroke:#A80036;stroke-width:1.0;" x1="1140.5" x2="2638.5" y1="1385.2188" y2="1385.2188"/><text fill="#000000" font-family="sans-serif" font-size="13" lengthAdjust="spacing" textLength="606" x="1147.5" y="1380.1528">atividadeAprovacao = new AtividadeAprovacao(formularioAprovacao, responsavelAprovacao)</text><polygon fill="#A80036" points="2809.5,1440.3516,2819.5,1444.3516,2809.5,1448.3516,2813.5,1444.3516" style="stroke:#A80036;stroke-width:1.0;"/><line style="stroke:#A80036;stroke-width:1.0;" x1="1140.5" x2="2815.5" y1="1444.3516" y2="1444.3516"/><text fill="#000000" font-family="sans-serif" font-size="13" lengthAdjust="spacing" textLength="569" x="1147.5" y="1439.2856">atividadeRealizacao = new atividadeRealizacao(formularioAjuda, responsavelConclusao)</text><polygon fill="#A80036" points="2493.5,1499.4844,2503.5,1503.4844,2493.5,1507.4844,2497.5,1503.4844" style="stroke:#A80036;stroke-width:1.0;"/><line style="stroke:#A80036;stroke-width:1.0;" x1="1140.5" x2="2499.5" y1="1503.4844" y2="1503.4844"/><text fill="#000000" font-family="sans-serif" font-size="13" lengthAdjust="spacing" textLength="435" x="1147.5" y="1498.4185">workflow = new workflow(atividadeAprovacao,atividadeRealizacao)</text><polygon fill="#A80036" points="2941,1558.6172,2951,1562.6172,2941,1566.6172,2945,1562.6172" style="stroke:#A80036;stroke-width:1.0;"/><line style="stroke:#A80036;stroke-width:1.0;" x1="1140.5" x2="2947" y1="1562.6172" y2="1562.6172"/><text fill="#000000" font-family="sans-serif" font-size="13" lengthAdjust="spacing" textLength="155" x="1147.5" y="1557.5513">newServico = create(...)</text><polygon fill="#A80036" points="2946,1587.75,2956,1591.75,2946,1595.75,2950,1591.75" style="stroke:#A80036;stroke-width:1.0;"/><line style="stroke:#A80036;stroke-width:1.0;" x1="1135.5" x2="2952" y1="1591.75" y2="1591.75"/><text fill="#000000" font-family="sans-serif" font-size="13" lengthAdjust="spacing" textLength="152" x="1142.5" y="1586.6841">addWorkflow(workflow)</text><line style="stroke:#000000;stroke-width:1.0;stroke-dasharray:2.0,2.0;" x1="10" x2="3016" y1="1607.75" y2="1607.75"/><text fill="#000000" font-family="sans-serif" font-size="11" font-weight="bold" lengthAdjust="spacing" textLength="326" x="15" y="1617.9604">[no caso da resolução escolhida ser automatica]</text><polygon fill="#A80036" points="2262.5,1638.6875,2272.5,1642.6875,2262.5,1646.6875,2266.5,1642.6875" style="stroke:#A80036;stroke-width:1.0;"/><line style="stroke:#A80036;stroke-width:1.0;" x1="109.5" x2="2268.5" y1="1642.6875" y2="1642.6875"/><text fill="#000000" font-family="sans-serif" font-size="13" lengthAdjust="spacing" textLength="251" x="116.5" y="1637.6216">scriptResolucao = getScritptDesejado()</text><polygon fill="#A80036" points="1118.5,1697.8203,1128.5,1701.8203,1118.5,1705.8203,1122.5,1701.8203" style="stroke:#A80036;stroke-width:1.0;"/><line style="stroke:#A80036;stroke-width:1.0;" x1="109.5" x2="1124.5" y1="1701.8203" y2="1701.8203"/><text fill="#000000" font-family="sans-serif" font-size="13" lengthAdjust="spacing" textLength="533" x="116.5" y="1696.7544">registarServico(...,strNomeFormularioAprovacao, lstAtriAprovaca, scriptResolucao )</text><polygon fill="#A80036" points="2388.5,1726.9531,2398.5,1730.9531,2388.5,1734.9531,2392.5,1730.9531" style="stroke:#A80036;stroke-width:1.0;"/><line style="stroke:#A80036;stroke-width:1.0;" x1="1140.5" x2="2394.5" y1="1730.9531" y2="1730.9531"/><text fill="#000000" font-family="sans-serif" font-size="13" lengthAdjust="spacing" textLength="568" x="1147.5" y="1725.8872">formularioAprovacao = new Formulario(strNomeFormularioAprovacao, lstAtriAprovacao)</text><polygon fill="#A80036" points="2632.5,1786.0859,2642.5,1790.0859,2632.5,1794.0859,2636.5,1790.0859" style="stroke:#A80036;stroke-width:1.0;"/><line style="stroke:#A80036;stroke-width:1.0;" x1="1140.5" x2="2638.5" y1="1790.0859" y2="1790.0859"/><text fill="#000000" font-family="sans-serif" font-size="13" lengthAdjust="spacing" textLength="606" x="1147.5" y="1785.02">atividadeAprovacao = new AtividadeAprovacao(formularioAprovacao, responsavelAprovacao)</text><polygon fill="#A80036" points="2809.5,1845.2188,2819.5,1849.2188,2809.5,1853.2188,2813.5,1849.2188" style="stroke:#A80036;stroke-width:1.0;"/><line style="stroke:#A80036;stroke-width:1.0;" x1="1140.5" x2="2815.5" y1="1849.2188" y2="1849.2188"/><text fill="#000000" font-family="sans-serif" font-size="13" lengthAdjust="spacing" textLength="350" x="1147.5" y="1844.1528">atividadeRealizacao = new atividadeRealizacao(script)</text><polygon fill="#A80036" points="2493.5,1904.3516,2503.5,1908.3516,2493.5,1912.3516,2497.5,1908.3516" style="stroke:#A80036;stroke-width:1.0;"/><line style="stroke:#A80036;stroke-width:1.0;" x1="1140.5" x2="2499.5" y1="1908.3516" y2="1908.3516"/><text fill="#000000" font-family="sans-serif" font-size="13" lengthAdjust="spacing" textLength="435" x="1147.5" y="1903.2856">workflow = new workflow(atividadeAprovacao,atividadeRealizacao)</text><polygon fill="#A80036" points="2941,1963.4844,2951,1967.4844,2941,1971.4844,2945,1967.4844" style="stroke:#A80036;stroke-width:1.0;"/><line style="stroke:#A80036;stroke-width:1.0;" x1="1140.5" x2="2947" y1="1967.4844" y2="1967.4844"/><text fill="#000000" font-family="sans-serif" font-size="13" lengthAdjust="spacing" textLength="155" x="1147.5" y="1962.4185">newServico = create(...)</text><polygon fill="#A80036" points="2946,1992.6172,2956,1996.6172,2946,2000.6172,2950,1996.6172" style="stroke:#A80036;stroke-width:1.0;"/><line style="stroke:#A80036;stroke-width:1.0;" x1="1135.5" x2="2952" y1="1996.6172" y2="1996.6172"/><text fill="#000000" font-family="sans-serif" font-size="13" lengthAdjust="spacing" textLength="152" x="1142.5" y="1991.5513">addWorkflow(workflow)</text><polygon fill="#A80036" points="1316,2028.75,1326,2032.75,1316,2036.75,1320,2032.75" style="stroke:#A80036;stroke-width:1.0;"/><line style="stroke:#A80036;stroke-width:1.0;" x1="1135.5" x2="1322" y1="2032.75" y2="2032.75"/><text fill="#000000" font-family="sans-serif" font-size="13" lengthAdjust="spacing" textLength="85" x="1142.5" y="2027.6841">repositories()</text><polygon fill="#A80036" points="1487,2057.8828,1497,2061.8828,1487,2065.8828,1491,2061.8828" style="stroke:#A80036;stroke-width:1.0;"/><line style="stroke:#A80036;stroke-width:1.0;" x1="1338" x2="1493" y1="2061.8828" y2="2061.8828"/><text fill="#000000" font-family="sans-serif" font-size="13" lengthAdjust="spacing" textLength="41" x="1345" y="2056.8169">create</text><polygon fill="#A80036" points="3015,2087.0156,3025,2091.0156,3015,2095.0156,3019,2091.0156" style="stroke:#A80036;stroke-width:1.0;"/><line style="stroke:#A80036;stroke-width:1.0;" x1="1504" x2="3021" y1="2091.0156" y2="2091.0156"/><text fill="#000000" font-family="sans-serif" font-size="13" lengthAdjust="spacing" textLength="41" x="1511" y="2085.9497">create</text><polygon fill="#A80036" points="3020,2116.1484,3030,2120.1484,3020,2124.1484,3024,2120.1484" style="stroke:#A80036;stroke-width:1.0;"/><line style="stroke:#A80036;stroke-width:1.0;" x1="1135.5" x2="3026" y1="2120.1484" y2="2120.1484"/><text fill="#000000" font-family="sans-serif" font-size="13" lengthAdjust="spacing" textLength="115" x="1142.5" y="2115.0825">save(newServico)</text><!--MD5=[be771eacb743333fd55edf591bab6a8e]
@startuml
participant ":RegistarServicoUI" as ui
		participant ":RegistarServicoController" as ctrl

		participant ":PersistenceContext" as pc
		participant ":RepositoryFactory" as rf
		participant ":ColaboradorRepository" as repoC
		participant ":EquipaRepository" as repoE
	  participant ":AtributosEmFormularioSettings" as AF
	  participant ":ScriptDesejado" as scrpt
		participant ":Formulario" as form
	  participant ":Workflow" as work
		participant ":AtividadeAprovacao" as atA
		participant ":AtividadeRealizacao" as atR
		participant ":Servico" as serv

		activate ui
		ui->ctrl:create
		activate ctrl
		deactivate ctrl
		ui->ui:doShow()

		opt no caso em que GSHD opta por introduzir uma atividade de aprovação

    ui->AF:lstAtriAprovacao = criarAtributosEmFormulario()
    activate AF
    deactivate AF

    end

	  alt no caso da resolução escolhida ser manual

    ui->AF:lstAtriAjuda = criarAtributosEmFormulario()
    activate AF
		deactivate AF

    alt no caso em que o GSHD opta por introduzir uma equipa com responsabilidades de resolução

    ui->ctrl:equipasDisponiveis
		activate ctrl
		ctrl->pc:repositories()
		activate pc
		pc->rf:create
		activate rf
		rf->repoE:create
		activate repoE
		deactivate repoE
		deactivate rf
		deactivate pc
		ctrl->repoE:allEquipasAtivas
		activate repoE
		deactivate repoE
		ctrl- ->ui: responsaveisConclusao = selectorEquipas
		deactivate ctrl

		ui->ctrl:registarServico(...,responsavelAprovacao ,strNomeFormularioAjuda, lstAtriAjuda, responsaveisConclusao, strNomeFormularioAprovacaoa, lstAtriAprovacao )
    activate ctrl
		ctrl->form: formularioAjuda = new Formulario(strNomeFormularioAjuda, lstAtriAjuda)
		activate form
		deactivate form
		ctrl->form: formularioAprovacao = new Formulario(strNomeFormularioAprovacao, lstAtriAprovacao)
		activate form
		deactivate form
		ctrl->atA: atividadeAprovacao = new AtividadeAprovacao(formularioAprovacao, responsavelAprovacao)
		activate atA
		deactivate atA
		ctrl->atR: atividadeRealizacao = new atividadeRealizacao(formularioAjuda, responsaveisConclusao)
		activate atR
		deactivate atR
		ctrl->work: workflow = new workflow(atividadeAprovacao,atividadeRealizacao)
		activate work
		deactivate work
		ctrl->serv:newServico = create(...)
		activate serv
		ctrl->serv:addWorkflow(workflow)
		deactivate serv
    deactivate ctrl

    else  no caso em que o GSHD opta por introduzir um colaborador com responsabilidades de resolução

    ui->ctrl:colaboradoresDisponiveis
		activate ctrl
		ctrl->pc:repositories()
		activate pc
		pc->rf:create
		activate rf
		rf->repoC:create
		activate repoC
		deactivate repoC
		deactivate rf
		deactivate pc
		ctrl->repoC:allColaboradores
		activate repoC
		deactivate repoC
		ctrl- ->ui: responsavelConclusao = selectorColaboradores
		deactivate ctrl

    ui->ctrl:registarServico(...,strNomeFormularioAjuda, lstAtriAjuda, responsavelConclusao, strNomeFormularioAprovacaoa, lstAtriAprovacao )
    activate ctrl
		ctrl->form: formularioAjuda = new Formulario(strNomeFormularioAjuda, lstAtriAjuda)
		activate form
		deactivate form
		ctrl->form: formularioAprovacao = new Formulario(strNomeFormularioAprovacao, lstAtriAprovacao)
		activate form
		deactivate form
		ctrl->atA: atividadeAprovacao = new AtividadeAprovacao(formularioAprovacao, responsavelAprovacao)
		activate atA
		deactivate atA
		ctrl->atR: atividadeRealizacao = new atividadeRealizacao(formularioAjuda, responsavelConclusao)
		activate atR
		deactivate atR
		ctrl->work: workflow = new workflow(atividadeAprovacao,atividadeRealizacao)
		activate work
		deactivate work
		ctrl->serv:newServico = create(...)
		activate serv
		ctrl->serv:addWorkflow(workflow)
		deactivate serv
    deactivate ctrl

    end

		else  no caso da resolução escolhida ser automatica

    ui->scrpt: scriptResolucao = getScritptDesejado()
    activate scrpt
		deactivate scrpt

		ui->ctrl:registarServico(...,strNomeFormularioAprovacao, lstAtriAprovaca, scriptResolucao )
    activate ctrl
		ctrl->form: formularioAprovacao = new Formulario(strNomeFormularioAprovacao, lstAtriAprovacao)
		activate form
		deactivate form
		ctrl->atA: atividadeAprovacao = new AtividadeAprovacao(formularioAprovacao, responsavelAprovacao)
		activate atA
		deactivate atA
		ctrl->atR: atividadeRealizacao = new atividadeRealizacao(script)
		activate atR
		deactivate atR
		ctrl->work: workflow = new workflow(atividadeAprovacao,atividadeRealizacao)
		activate work
		deactivate work
		ctrl->serv:newServico = create(...)
		activate serv
		ctrl->serv:addWorkflow(workflow)
		deactivate serv
    deactivate ctrl

    end

		ctrl->pc:repositories()
		activate pc
		pc->rf:create
		activate rf
		rf->repo:create
		deactivate rf
		deactivate pc
		activate repo
		ctrl->repo:save(newServico)
		deactivate repo
		deactivate ctrl
		deactivate ui
@enduml

PlantUML version 1.2021.7beta2(Unknown compile time)
(GPL source distribution)
Java Runtime: Java(TM) SE Runtime Environment
JVM: Java HotSpot(TM) 64-Bit Server VM
Default Encoding: UTF-8
Language: en
Country: US
--></g></svg>