<?xml version="1.0" encoding="UTF-8" standalone="no"?><svg xmlns="http://www.w3.org/2000/svg" xmlns:xlink="http://www.w3.org/1999/xlink" contentScriptType="application/ecmascript" contentStyleType="text/css" height="486px" preserveAspectRatio="none" style="width:948px;height:486px;" version="1.1" viewBox="0 0 948 486" width="948px" zoomAndPan="magnify"><defs><filter height="300%" id="fdnxqhhvni7ni" width="300%" x="-1" y="-1"><feGaussianBlur result="blurOut" stdDeviation="2.0"/><feColorMatrix in="blurOut" result="blurOut2" type="matrix" values="0 0 0 0 0 0 0 0 0 0 0 0 0 0 0 0 0 0 .4 0"/><feOffset dx="4.0" dy="4.0" in="blurOut2" result="blurOut3"/><feBlend in="SourceGraphic" in2="blurOut3" mode="normal"/></filter></defs><g><rect fill="#FFFFFF" filter="url(#fdnxqhhvni7ni)" height="382.5234" style="stroke:#A80036;stroke-width:1.0;" width="10" x="80" y="50.2969"/><rect fill="#FFFFFF" filter="url(#fdnxqhhvni7ni)" height="361.3906" style="stroke:#A80036;stroke-width:1.0;" width="10" x="473" y="71.4297"/><rect fill="#FFFFFF" filter="url(#fdnxqhhvni7ni)" height="30" style="stroke:#A80036;stroke-width:1.0;" width="10" x="854.5" y="233.2891"/><rect fill="#FFFFFF" filter="url(#fdnxqhhvni7ni)" height="30" style="stroke:#A80036;stroke-width:1.0;" width="10" x="854.5" y="387.8203"/><rect fill="#FFFFFF" filter="url(#fdnxqhhvni7ni)" height="76.2656" style="stroke:#000000;stroke-width:2.0;" width="579" x="355" y="349.5547"/><line style="stroke:#A80036;stroke-width:1.0;stroke-dasharray:5.0,5.0;" x1="85" x2="85" y1="40.2969" y2="442.8203"/><line style="stroke:#A80036;stroke-width:1.0;stroke-dasharray:5.0,5.0;" x1="478" x2="478" y1="40.2969" y2="442.8203"/><line style="stroke:#A80036;stroke-width:1.0;stroke-dasharray:5.0,5.0;" x1="693" x2="693" y1="112.0781" y2="442.8203"/><line style="stroke:#A80036;stroke-width:1.0;stroke-dasharray:5.0,5.0;" x1="859" x2="859" y1="157.375" y2="442.8203"/><rect fill="#FEFECE" filter="url(#fdnxqhhvni7ni)" height="30.2969" style="stroke:#A80036;stroke-width:1.5;" width="156" x="5" y="5"/><text fill="#000000" font-family="sans-serif" font-size="14" lengthAdjust="spacing" textLength="142" x="12" y="24.9951">:RegistarCatalogoUI</text><rect fill="#FEFECE" filter="url(#fdnxqhhvni7ni)" height="30.2969" style="stroke:#A80036;stroke-width:1.5;" width="156" x="5" y="441.8203"/><text fill="#000000" font-family="sans-serif" font-size="14" lengthAdjust="spacing" textLength="142" x="12" y="461.8154">:RegistarCatalogoUI</text><rect fill="#FEFECE" filter="url(#fdnxqhhvni7ni)" height="30.2969" style="stroke:#A80036;stroke-width:1.5;" width="222" x="365" y="5"/><text fill="#000000" font-family="sans-serif" font-size="14" lengthAdjust="spacing" textLength="208" x="372" y="24.9951">:EquipasEmCatalogoSettings</text><rect fill="#FEFECE" filter="url(#fdnxqhhvni7ni)" height="30.2969" style="stroke:#A80036;stroke-width:1.5;" width="222" x="365" y="441.8203"/><text fill="#000000" font-family="sans-serif" font-size="14" lengthAdjust="spacing" textLength="208" x="372" y="461.8154">:EquipasEmCatalogoSettings</text><rect fill="#FEFECE" filter="url(#fdnxqhhvni7ni)" height="30.2969" style="stroke:#A80036;stroke-width:1.5;" width="180" x="601" y="441.8203"/><text fill="#000000" font-family="sans-serif" font-size="14" lengthAdjust="spacing" textLength="166" x="608" y="461.8154">:setEquipasComAcesso</text><rect fill="#FEFECE" filter="url(#fdnxqhhvni7ni)" height="30.2969" style="stroke:#A80036;stroke-width:1.5;" width="125" x="795" y="441.8203"/><text fill="#000000" font-family="sans-serif" font-size="14" lengthAdjust="spacing" textLength="111" x="802" y="461.8154">:allEquipasoList</text><rect fill="#FFFFFF" filter="url(#fdnxqhhvni7ni)" height="382.5234" style="stroke:#A80036;stroke-width:1.0;" width="10" x="80" y="50.2969"/><rect fill="#FFFFFF" filter="url(#fdnxqhhvni7ni)" height="361.3906" style="stroke:#A80036;stroke-width:1.0;" width="10" x="473" y="71.4297"/><rect fill="#FFFFFF" filter="url(#fdnxqhhvni7ni)" height="30" style="stroke:#A80036;stroke-width:1.0;" width="10" x="854.5" y="233.2891"/><rect fill="#FFFFFF" filter="url(#fdnxqhhvni7ni)" height="30" style="stroke:#A80036;stroke-width:1.0;" width="10" x="854.5" y="387.8203"/><polygon fill="#A80036" points="461,67.4297,471,71.4297,461,75.4297,465,71.4297" style="stroke:#A80036;stroke-width:1.0;"/><line style="stroke:#A80036;stroke-width:1.0;" x1="90" x2="467" y1="71.4297" y2="71.4297"/><text fill="#000000" font-family="sans-serif" font-size="13" lengthAdjust="spacing" textLength="254" x="97" y="66.3638">EquipasEmCatalogoSettings(allEquipas)</text><polygon fill="#A80036" points="589,81.4297,599,85.4297,589,89.4297,593,85.4297" style="stroke:#A80036;stroke-width:1.0;"/><line style="stroke:#A80036;stroke-width:1.0;" x1="483" x2="595" y1="85.4297" y2="85.4297"/><rect fill="#FEFECE" filter="url(#fdnxqhhvni7ni)" height="30.2969" style="stroke:#A80036;stroke-width:1.5;" width="180" x="601" y="79.4297"/><text fill="#000000" font-family="sans-serif" font-size="14" lengthAdjust="spacing" textLength="166" x="608" y="99.4248">:setEquipasComAcesso</text><polygon fill="#A80036" points="783,126.7266,793,130.7266,783,134.7266,787,130.7266" style="stroke:#A80036;stroke-width:1.0;"/><line style="stroke:#A80036;stroke-width:1.0;" x1="483" x2="789" y1="130.7266" y2="130.7266"/><rect fill="#FEFECE" filter="url(#fdnxqhhvni7ni)" height="30.2969" style="stroke:#A80036;stroke-width:1.5;" width="125" x="795" y="124.7266"/><text fill="#000000" font-family="sans-serif" font-size="14" lengthAdjust="spacing" textLength="111" x="802" y="144.7217">:allEquipasoList</text><line style="stroke:#A80036;stroke-width:1.0;" x1="483" x2="525" y1="191.1563" y2="191.1563"/><line style="stroke:#A80036;stroke-width:1.0;" x1="525" x2="525" y1="191.1563" y2="204.1563"/><line style="stroke:#A80036;stroke-width:1.0;" x1="484" x2="525" y1="204.1563" y2="204.1563"/><polygon fill="#A80036" points="494,200.1563,484,204.1563,494,208.1563,490,204.1563" style="stroke:#A80036;stroke-width:1.0;"/><text fill="#000000" font-family="sans-serif" font-size="13" lengthAdjust="spacing" textLength="172" x="490" y="186.0903">result = makeList(equipas)</text><polygon fill="#A80036" points="842.5,229.2891,852.5,233.2891,842.5,237.2891,846.5,233.2891" style="stroke:#A80036;stroke-width:1.0;"/><line style="stroke:#A80036;stroke-width:1.0;" x1="483" x2="848.5" y1="233.2891" y2="233.2891"/><text fill="#000000" font-family="sans-serif" font-size="13" lengthAdjust="spacing" textLength="148" x="490" y="228.2231">allEquipasoList = result</text><polygon fill="#A80036" points="461,288.4219,471,292.4219,461,296.4219,465,292.4219" style="stroke:#A80036;stroke-width:1.0;"/><line style="stroke:#A80036;stroke-width:1.0;" x1="90" x2="467" y1="292.4219" y2="292.4219"/><text fill="#000000" font-family="sans-serif" font-size="13" lengthAdjust="spacing" textLength="359" x="97" y="287.356">equipasEscolhidasComAcesso = setEquipasEmCatalogo</text><line style="stroke:#A80036;stroke-width:1.0;" x1="483" x2="525" y1="321.5547" y2="321.5547"/><line style="stroke:#A80036;stroke-width:1.0;" x1="525" x2="525" y1="321.5547" y2="334.5547"/><line style="stroke:#A80036;stroke-width:1.0;" x1="484" x2="525" y1="334.5547" y2="334.5547"/><polygon fill="#A80036" points="494,330.5547,484,334.5547,494,338.5547,490,334.5547" style="stroke:#A80036;stroke-width:1.0;"/><text fill="#000000" font-family="sans-serif" font-size="13" lengthAdjust="spacing" textLength="84" x="490" y="316.4888">showEquipas</text><path d="M355,349.5547 L433,349.5547 L433,356.5547 L423,366.5547 L355,366.5547 L355,349.5547 " fill="#EEEEEE" style="stroke:#000000;stroke-width:1.0;"/><rect fill="none" height="76.2656" style="stroke:#000000;stroke-width:2.0;" width="579" x="355" y="349.5547"/><text fill="#000000" font-family="sans-serif" font-size="13" font-weight="bold" lengthAdjust="spacing" textLength="33" x="370" y="362.6216">loop</text><text fill="#000000" font-family="sans-serif" font-size="11" font-weight="bold" lengthAdjust="spacing" textLength="343" x="448" y="361.7651">[até serem definidas todas as equipas com acesso]</text><polygon fill="#A80036" points="842.5,383.8203,852.5,387.8203,842.5,391.8203,846.5,387.8203" style="stroke:#A80036;stroke-width:1.0;"/><line style="stroke:#A80036;stroke-width:1.0;" x1="483" x2="848.5" y1="387.8203" y2="387.8203"/><text fill="#000000" font-family="sans-serif" font-size="13" lengthAdjust="spacing" textLength="24" x="490" y="382.7544">add</text><!--MD5=[2e8f3d827d0aab9b881378fe1557d4e2]
@startuml
participant ":RegistarCatalogoUI" as ui
        participant ":EquipasEmCatalogoSettings" as equipaS
        participant ":setEquipasComAcesso" as listS
		participant ":allEquipasoList" as listE
		
	    activate ui
	    ui-> equipaS: EquipasEmCatalogoSettings(allEquipas)
	    
		activate equipaS
		equipaS-> listS **
		equipaS->listE **
		equipaS-> equipaS: result = makeList(equipas)
		equipaS-> listE: allEquipasoList = result
		activate listE
		deactivate listE
		
		ui-> equipaS: equipasEscolhidasComAcesso = setEquipasEmCatalogo
		equipaS-> equipaS: showEquipas
		loop até serem definidas todas as equipas com acesso
		equipaS-> listE: add
		activate listE
		deactivate listE
		end
	    
		deactivate equipaS
		deactivate ui
@enduml

PlantUML version 1.2021.5beta3(Unknown compile time)
(GPL source distribution)
Java Runtime: Java(TM) SE Runtime Environment
JVM: Java HotSpot(TM) 64-Bit Server VM
Default Encoding: UTF-8
Language: en
Country: US
--></g></svg>