<?xml version="1.0" encoding="UTF-8" standalone="no"?><svg xmlns="http://www.w3.org/2000/svg" xmlns:xlink="http://www.w3.org/1999/xlink" contentScriptType="application/ecmascript" contentStyleType="text/css" height="1602px" preserveAspectRatio="none" style="width:3573px;height:1602px;" version="1.1" viewBox="0 0 3573 1602" width="3573px" zoomAndPan="magnify"><defs><filter height="300%" id="f14fdqnsvi0z8b" width="300%" x="-1" y="-1"><feGaussianBlur result="blurOut" stdDeviation="2.0"/><feColorMatrix in="blurOut" result="blurOut2" type="matrix" values="0 0 0 0 0 0 0 0 0 0 0 0 0 0 0 0 0 0 .4 0"/><feOffset dx="4.0" dy="4.0" in="blurOut2" result="blurOut3"/><feBlend in="SourceGraphic" in2="blurOut3" mode="normal"/></filter></defs><g><rect fill="#FFFFFF" filter="url(#f14fdqnsvi0z8b)" height="1490.7813" style="stroke:#A80036;stroke-width:1.0;" width="10" x="80" y="50.2969"/><rect fill="#FFFFFF" filter="url(#f14fdqnsvi0z8b)" height="30" style="stroke:#A80036;stroke-width:1.0;" width="10" x="868" y="71.4297"/><rect fill="#FFFFFF" filter="url(#f14fdqnsvi0z8b)" height="205.6641" style="stroke:#A80036;stroke-width:1.0;" width="10" x="868" y="231.8281"/><rect fill="#FFFFFF" filter="url(#f14fdqnsvi0z8b)" height="205.6641" style="stroke:#A80036;stroke-width:1.0;" width="10" x="868" y="466.625"/><rect fill="#FFFFFF" filter="url(#f14fdqnsvi0z8b)" height="205.6641" style="stroke:#A80036;stroke-width:1.0;" width="10" x="868" y="701.4219"/><rect fill="#FFFFFF" filter="url(#f14fdqnsvi0z8b)" height="530.4609" style="stroke:#A80036;stroke-width:1.0;" width="10" x="868" y="1010.6172"/><rect fill="#FFFFFF" filter="url(#f14fdqnsvi0z8b)" height="30" style="stroke:#A80036;stroke-width:1.0;" width="10" x="1101" y="130.5625"/><rect fill="#FFFFFF" filter="url(#f14fdqnsvi0z8b)" height="30" style="stroke:#A80036;stroke-width:1.0;" width="10" x="1101" y="1276.2813"/><rect fill="#FFFFFF" filter="url(#f14fdqnsvi0z8b)" height="88.2656" style="stroke:#A80036;stroke-width:1.0;" width="10" x="1264" y="260.9609"/><rect fill="#FFFFFF" filter="url(#f14fdqnsvi0z8b)" height="88.2656" style="stroke:#A80036;stroke-width:1.0;" width="10" x="1264" y="495.7578"/><rect fill="#FFFFFF" filter="url(#f14fdqnsvi0z8b)" height="88.2656" style="stroke:#A80036;stroke-width:1.0;" width="10" x="1264" y="730.5547"/><rect fill="#FFFFFF" filter="url(#f14fdqnsvi0z8b)" height="58.2656" style="stroke:#A80036;stroke-width:1.0;" width="10" x="1264" y="1453.6797"/><rect fill="#FFFFFF" filter="url(#f14fdqnsvi0z8b)" height="59.1328" style="stroke:#A80036;stroke-width:1.0;" width="10" x="1435" y="290.0938"/><rect fill="#FFFFFF" filter="url(#f14fdqnsvi0z8b)" height="59.1328" style="stroke:#A80036;stroke-width:1.0;" width="10" x="1435" y="524.8906"/><rect fill="#FFFFFF" filter="url(#f14fdqnsvi0z8b)" height="59.1328" style="stroke:#A80036;stroke-width:1.0;" width="10" x="1435" y="759.6875"/><rect fill="#FFFFFF" filter="url(#f14fdqnsvi0z8b)" height="29.1328" style="stroke:#A80036;stroke-width:1.0;" width="10" x="1435" y="1482.8125"/><rect fill="#FFFFFF" filter="url(#f14fdqnsvi0z8b)" height="30" style="stroke:#A80036;stroke-width:1.0;" width="10" x="1618" y="319.2266"/><rect fill="#FFFFFF" filter="url(#f14fdqnsvi0z8b)" height="30" style="stroke:#A80036;stroke-width:1.0;" width="10" x="1618" y="378.3594"/><rect fill="#FFFFFF" filter="url(#f14fdqnsvi0z8b)" height="30" style="stroke:#A80036;stroke-width:1.0;" width="10" x="1787.5" y="554.0234"/><rect fill="#FFFFFF" filter="url(#f14fdqnsvi0z8b)" height="30" style="stroke:#A80036;stroke-width:1.0;" width="10" x="1787.5" y="613.1563"/><rect fill="#FFFFFF" filter="url(#f14fdqnsvi0z8b)" height="74.3984" style="stroke:#A80036;stroke-width:1.0;" width="10" x="1975" y="936.2188"/><rect fill="#FFFFFF" filter="url(#f14fdqnsvi0z8b)" height="30" style="stroke:#A80036;stroke-width:1.0;" width="10" x="2173" y="788.8203"/><rect fill="#FFFFFF" filter="url(#f14fdqnsvi0z8b)" height="30" style="stroke:#A80036;stroke-width:1.0;" width="10" x="2173" y="847.9531"/><rect fill="#FFFFFF" filter="url(#f14fdqnsvi0z8b)" height="30" style="stroke:#A80036;stroke-width:1.0;" width="10" x="2544.5" y="1039.75"/><rect fill="#FFFFFF" filter="url(#f14fdqnsvi0z8b)" height="30" style="stroke:#A80036;stroke-width:1.0;" width="10" x="2708" y="1098.8828"/><rect fill="#FFFFFF" filter="url(#f14fdqnsvi0z8b)" height="30" style="stroke:#A80036;stroke-width:1.0;" width="10" x="2864" y="1158.0156"/><rect fill="#FFFFFF" filter="url(#f14fdqnsvi0z8b)" height="30" style="stroke:#A80036;stroke-width:1.0;" width="10" x="3052.5" y="1217.1484"/><rect fill="#FFFFFF" filter="url(#f14fdqnsvi0z8b)" height="30" style="stroke:#A80036;stroke-width:1.0;" width="10" x="3222" y="1335.4141"/><rect fill="#FFFFFF" filter="url(#f14fdqnsvi0z8b)" height="30" style="stroke:#A80036;stroke-width:1.0;" width="10" x="3338.5" y="1394.5469"/><rect fill="#FFFFFF" filter="url(#f14fdqnsvi0z8b)" height="29.1328" style="stroke:#A80036;stroke-width:1.0;" width="10" x="3475" y="1511.9453"/><line style="stroke:#A80036;stroke-width:1.0;stroke-dasharray:5.0,5.0;" x1="85" x2="85" y1="40.2969" y2="1559.0781"/><line style="stroke:#A80036;stroke-width:1.0;stroke-dasharray:5.0,5.0;" x1="873" x2="873" y1="40.2969" y2="1559.0781"/><line style="stroke:#A80036;stroke-width:1.0;stroke-dasharray:5.0,5.0;" x1="1106" x2="1106" y1="40.2969" y2="1559.0781"/><line style="stroke:#A80036;stroke-width:1.0;stroke-dasharray:5.0,5.0;" x1="1269" x2="1269" y1="40.2969" y2="1559.0781"/><line style="stroke:#A80036;stroke-width:1.0;stroke-dasharray:5.0,5.0;" x1="1440" x2="1440" y1="40.2969" y2="1559.0781"/><line style="stroke:#A80036;stroke-width:1.0;stroke-dasharray:5.0,5.0;" x1="1623" x2="1623" y1="40.2969" y2="1559.0781"/><line style="stroke:#A80036;stroke-width:1.0;stroke-dasharray:5.0,5.0;" x1="1792" x2="1792" y1="40.2969" y2="1559.0781"/><line style="stroke:#A80036;stroke-width:1.0;stroke-dasharray:5.0,5.0;" x1="1980" x2="1980" y1="40.2969" y2="1559.0781"/><line style="stroke:#A80036;stroke-width:1.0;stroke-dasharray:5.0,5.0;" x1="2178" x2="2178" y1="40.2969" y2="1559.0781"/><line style="stroke:#A80036;stroke-width:1.0;stroke-dasharray:5.0,5.0;" x1="2356" x2="2356" y1="40.2969" y2="1559.0781"/><line style="stroke:#A80036;stroke-width:1.0;stroke-dasharray:5.0,5.0;" x1="2549" x2="2549" y1="40.2969" y2="1559.0781"/><line style="stroke:#A80036;stroke-width:1.0;stroke-dasharray:5.0,5.0;" x1="2713" x2="2713" y1="40.2969" y2="1559.0781"/><line style="stroke:#A80036;stroke-width:1.0;stroke-dasharray:5.0,5.0;" x1="2869" x2="2869" y1="40.2969" y2="1559.0781"/><line style="stroke:#A80036;stroke-width:1.0;stroke-dasharray:5.0,5.0;" x1="3057" x2="3057" y1="40.2969" y2="1559.0781"/><line style="stroke:#A80036;stroke-width:1.0;stroke-dasharray:5.0,5.0;" x1="3227" x2="3227" y1="40.2969" y2="1559.0781"/><line style="stroke:#A80036;stroke-width:1.0;stroke-dasharray:5.0,5.0;" x1="3343" x2="3343" y1="40.2969" y2="1559.0781"/><line style="stroke:#A80036;stroke-width:1.0;stroke-dasharray:5.0,5.0;" x1="3480" x2="3480" y1="40.2969" y2="1559.0781"/><rect fill="#FEFECE" filter="url(#f14fdqnsvi0z8b)" height="30.2969" style="stroke:#A80036;stroke-width:1.5;" width="156" x="5" y="5"/><text fill="#000000" font-family="sans-serif" font-size="14" lengthAdjust="spacing" textLength="142" x="12" y="24.9951">:RegistarCatalogoUI</text><rect fill="#FEFECE" filter="url(#f14fdqnsvi0z8b)" height="30.2969" style="stroke:#A80036;stroke-width:1.5;" width="156" x="5" y="1558.0781"/><text fill="#000000" font-family="sans-serif" font-size="14" lengthAdjust="spacing" textLength="142" x="12" y="1578.0732">:RegistarCatalogoUI</text><rect fill="#FEFECE" filter="url(#f14fdqnsvi0z8b)" height="30.2969" style="stroke:#A80036;stroke-width:1.5;" width="216" x="763" y="5"/><text fill="#000000" font-family="sans-serif" font-size="14" lengthAdjust="spacing" textLength="202" x="770" y="24.9951">:RegistarCatalogoController</text><rect fill="#FEFECE" filter="url(#f14fdqnsvi0z8b)" height="30.2969" style="stroke:#A80036;stroke-width:1.5;" width="216" x="763" y="1558.0781"/><text fill="#000000" font-family="sans-serif" font-size="14" lengthAdjust="spacing" textLength="202" x="770" y="1578.0732">:RegistarCatalogoController</text><rect fill="#FEFECE" filter="url(#f14fdqnsvi0z8b)" height="30.2969" style="stroke:#A80036;stroke-width:1.5;" width="136" x="1036" y="5"/><text fill="#000000" font-family="sans-serif" font-size="14" lengthAdjust="spacing" textLength="122" x="1043" y="24.9951">:ImageController</text><rect fill="#FEFECE" filter="url(#f14fdqnsvi0z8b)" height="30.2969" style="stroke:#A80036;stroke-width:1.5;" width="136" x="1036" y="1558.0781"/><text fill="#000000" font-family="sans-serif" font-size="14" lengthAdjust="spacing" textLength="122" x="1043" y="1578.0732">:ImageController</text><rect fill="#FEFECE" filter="url(#f14fdqnsvi0z8b)" height="30.2969" style="stroke:#A80036;stroke-width:1.5;" width="162" x="1186" y="5"/><text fill="#000000" font-family="sans-serif" font-size="14" lengthAdjust="spacing" textLength="148" x="1193" y="24.9951">:PersistenceContext</text><rect fill="#FEFECE" filter="url(#f14fdqnsvi0z8b)" height="30.2969" style="stroke:#A80036;stroke-width:1.5;" width="162" x="1186" y="1558.0781"/><text fill="#000000" font-family="sans-serif" font-size="14" lengthAdjust="spacing" textLength="148" x="1193" y="1578.0732">:PersistenceContext</text><rect fill="#FEFECE" filter="url(#f14fdqnsvi0z8b)" height="30.2969" style="stroke:#A80036;stroke-width:1.5;" width="152" x="1362" y="5"/><text fill="#000000" font-family="sans-serif" font-size="14" lengthAdjust="spacing" textLength="138" x="1369" y="24.9951">:RepositoryFactory</text><rect fill="#FEFECE" filter="url(#f14fdqnsvi0z8b)" height="30.2969" style="stroke:#A80036;stroke-width:1.5;" width="152" x="1362" y="1558.0781"/><text fill="#000000" font-family="sans-serif" font-size="14" lengthAdjust="spacing" textLength="138" x="1369" y="1578.0732">:RepositoryFactory</text><rect fill="#FEFECE" filter="url(#f14fdqnsvi0z8b)" height="30.2969" style="stroke:#A80036;stroke-width:1.5;" width="186" x="1528" y="5"/><text fill="#000000" font-family="sans-serif" font-size="14" lengthAdjust="spacing" textLength="172" x="1535" y="24.9951">:ColaboradorRepository</text><rect fill="#FEFECE" filter="url(#f14fdqnsvi0z8b)" height="30.2969" style="stroke:#A80036;stroke-width:1.5;" width="186" x="1528" y="1558.0781"/><text fill="#000000" font-family="sans-serif" font-size="14" lengthAdjust="spacing" textLength="172" x="1535" y="1578.0732">:ColaboradorRepository</text><rect fill="#FEFECE" filter="url(#f14fdqnsvi0z8b)" height="30.2969" style="stroke:#A80036;stroke-width:1.5;" width="125" x="1728" y="5"/><text fill="#000000" font-family="sans-serif" font-size="14" lengthAdjust="spacing" textLength="111" x="1735" y="24.9951">:SLARepository</text><rect fill="#FEFECE" filter="url(#f14fdqnsvi0z8b)" height="30.2969" style="stroke:#A80036;stroke-width:1.5;" width="125" x="1728" y="1558.0781"/><text fill="#000000" font-family="sans-serif" font-size="14" lengthAdjust="spacing" textLength="111" x="1735" y="1578.0732">:SLARepository</text><rect fill="#FEFECE" filter="url(#f14fdqnsvi0z8b)" height="30.2969" style="stroke:#A80036;stroke-width:1.5;" width="222" x="1867" y="5"/><text fill="#000000" font-family="sans-serif" font-size="14" lengthAdjust="spacing" textLength="208" x="1874" y="24.9951">:EquipasEmCatalogoSettings</text><rect fill="#FEFECE" filter="url(#f14fdqnsvi0z8b)" height="30.2969" style="stroke:#A80036;stroke-width:1.5;" width="222" x="1867" y="1558.0781"/><text fill="#000000" font-family="sans-serif" font-size="14" lengthAdjust="spacing" textLength="208" x="1874" y="1578.0732">:EquipasEmCatalogoSettings</text><rect fill="#FEFECE" filter="url(#f14fdqnsvi0z8b)" height="30.2969" style="stroke:#A80036;stroke-width:1.5;" width="146" x="2103" y="5"/><text fill="#000000" font-family="sans-serif" font-size="14" lengthAdjust="spacing" textLength="132" x="2110" y="24.9951">:EquipaRepository</text><rect fill="#FEFECE" filter="url(#f14fdqnsvi0z8b)" height="30.2969" style="stroke:#A80036;stroke-width:1.5;" width="146" x="2103" y="1558.0781"/><text fill="#000000" font-family="sans-serif" font-size="14" lengthAdjust="spacing" textLength="132" x="2110" y="1578.0732">:EquipaRepository</text><rect fill="#FEFECE" filter="url(#f14fdqnsvi0z8b)" height="30.2969" style="stroke:#A80036;stroke-width:1.5;" width="183" x="2263" y="5"/><text fill="#000000" font-family="sans-serif" font-size="14" lengthAdjust="spacing" textLength="169" x="2270" y="24.9951">:EquipasComAcessoList</text><rect fill="#FEFECE" filter="url(#f14fdqnsvi0z8b)" height="30.2969" style="stroke:#A80036;stroke-width:1.5;" width="183" x="2263" y="1558.0781"/><text fill="#000000" font-family="sans-serif" font-size="14" lengthAdjust="spacing" textLength="169" x="2270" y="1578.0732">:EquipasComAcessoList</text><rect fill="#FEFECE" filter="url(#f14fdqnsvi0z8b)" height="30.2969" style="stroke:#A80036;stroke-width:1.5;" width="175" x="2460" y="5"/><text fill="#000000" font-family="sans-serif" font-size="14" lengthAdjust="spacing" textLength="161" x="2467" y="24.9951">:IdentificadorCatalogo</text><rect fill="#FEFECE" filter="url(#f14fdqnsvi0z8b)" height="30.2969" style="stroke:#A80036;stroke-width:1.5;" width="175" x="2460" y="1558.0781"/><text fill="#000000" font-family="sans-serif" font-size="14" lengthAdjust="spacing" textLength="161" x="2467" y="1578.0732">:IdentificadorCatalogo</text><rect fill="#FEFECE" filter="url(#f14fdqnsvi0z8b)" height="30.2969" style="stroke:#A80036;stroke-width:1.5;" width="124" x="2649" y="5"/><text fill="#000000" font-family="sans-serif" font-size="14" lengthAdjust="spacing" textLength="110" x="2656" y="24.9951">:TituloCatalogo</text><rect fill="#FEFECE" filter="url(#f14fdqnsvi0z8b)" height="30.2969" style="stroke:#A80036;stroke-width:1.5;" width="124" x="2649" y="1558.0781"/><text fill="#000000" font-family="sans-serif" font-size="14" lengthAdjust="spacing" textLength="110" x="2656" y="1578.0732">:TituloCatalogo</text><rect fill="#FEFECE" filter="url(#f14fdqnsvi0z8b)" height="30.2969" style="stroke:#A80036;stroke-width:1.5;" width="160" x="2787" y="5"/><text fill="#000000" font-family="sans-serif" font-size="14" lengthAdjust="spacing" textLength="146" x="2794" y="24.9951">:DescBreveCatalogo</text><rect fill="#FEFECE" filter="url(#f14fdqnsvi0z8b)" height="30.2969" style="stroke:#A80036;stroke-width:1.5;" width="160" x="2787" y="1558.0781"/><text fill="#000000" font-family="sans-serif" font-size="14" lengthAdjust="spacing" textLength="146" x="2794" y="1578.0732">:DescBreveCatalogo</text><rect fill="#FEFECE" filter="url(#f14fdqnsvi0z8b)" height="30.2969" style="stroke:#A80036;stroke-width:1.5;" width="189" x="2961" y="5"/><text fill="#000000" font-family="sans-serif" font-size="14" lengthAdjust="spacing" textLength="175" x="2968" y="24.9951">:DescCompletaCatalogo</text><rect fill="#FEFECE" filter="url(#f14fdqnsvi0z8b)" height="30.2969" style="stroke:#A80036;stroke-width:1.5;" width="189" x="2961" y="1558.0781"/><text fill="#000000" font-family="sans-serif" font-size="14" lengthAdjust="spacing" textLength="175" x="2968" y="1578.0732">:DescCompletaCatalogo</text><rect fill="#FEFECE" filter="url(#f14fdqnsvi0z8b)" height="30.2969" style="stroke:#A80036;stroke-width:1.5;" width="122" x="3164" y="5"/><text fill="#000000" font-family="sans-serif" font-size="14" lengthAdjust="spacing" textLength="108" x="3171" y="24.9951">:IconeCatalogo</text><rect fill="#FEFECE" filter="url(#f14fdqnsvi0z8b)" height="30.2969" style="stroke:#A80036;stroke-width:1.5;" width="122" x="3164" y="1558.0781"/><text fill="#000000" font-family="sans-serif" font-size="14" lengthAdjust="spacing" textLength="108" x="3171" y="1578.0732">:IconeCatalogo</text><rect fill="#FEFECE" filter="url(#f14fdqnsvi0z8b)" height="30.2969" style="stroke:#A80036;stroke-width:1.5;" width="83" x="3300" y="5"/><text fill="#000000" font-family="sans-serif" font-size="14" lengthAdjust="spacing" textLength="69" x="3307" y="24.9951">:Catalogo</text><rect fill="#FEFECE" filter="url(#f14fdqnsvi0z8b)" height="30.2969" style="stroke:#A80036;stroke-width:1.5;" width="83" x="3300" y="1558.0781"/><text fill="#000000" font-family="sans-serif" font-size="14" lengthAdjust="spacing" textLength="69" x="3307" y="1578.0732">:Catalogo</text><rect fill="#FEFECE" filter="url(#f14fdqnsvi0z8b)" height="30.2969" style="stroke:#A80036;stroke-width:1.5;" width="162" x="3397" y="5"/><text fill="#000000" font-family="sans-serif" font-size="14" lengthAdjust="spacing" textLength="148" x="3404" y="24.9951">:CatalogoRepository</text><rect fill="#FEFECE" filter="url(#f14fdqnsvi0z8b)" height="30.2969" style="stroke:#A80036;stroke-width:1.5;" width="162" x="3397" y="1558.0781"/><text fill="#000000" font-family="sans-serif" font-size="14" lengthAdjust="spacing" textLength="148" x="3404" y="1578.0732">:CatalogoRepository</text><rect fill="#FFFFFF" filter="url(#f14fdqnsvi0z8b)" height="1490.7813" style="stroke:#A80036;stroke-width:1.0;" width="10" x="80" y="50.2969"/><rect fill="#FFFFFF" filter="url(#f14fdqnsvi0z8b)" height="30" style="stroke:#A80036;stroke-width:1.0;" width="10" x="868" y="71.4297"/><rect fill="#FFFFFF" filter="url(#f14fdqnsvi0z8b)" height="205.6641" style="stroke:#A80036;stroke-width:1.0;" width="10" x="868" y="231.8281"/><rect fill="#FFFFFF" filter="url(#f14fdqnsvi0z8b)" height="205.6641" style="stroke:#A80036;stroke-width:1.0;" width="10" x="868" y="466.625"/><rect fill="#FFFFFF" filter="url(#f14fdqnsvi0z8b)" height="205.6641" style="stroke:#A80036;stroke-width:1.0;" width="10" x="868" y="701.4219"/><rect fill="#FFFFFF" filter="url(#f14fdqnsvi0z8b)" height="530.4609" style="stroke:#A80036;stroke-width:1.0;" width="10" x="868" y="1010.6172"/><rect fill="#FFFFFF" filter="url(#f14fdqnsvi0z8b)" height="30" style="stroke:#A80036;stroke-width:1.0;" width="10" x="1101" y="130.5625"/><rect fill="#FFFFFF" filter="url(#f14fdqnsvi0z8b)" height="30" style="stroke:#A80036;stroke-width:1.0;" width="10" x="1101" y="1276.2813"/><rect fill="#FFFFFF" filter="url(#f14fdqnsvi0z8b)" height="88.2656" style="stroke:#A80036;stroke-width:1.0;" width="10" x="1264" y="260.9609"/><rect fill="#FFFFFF" filter="url(#f14fdqnsvi0z8b)" height="88.2656" style="stroke:#A80036;stroke-width:1.0;" width="10" x="1264" y="495.7578"/><rect fill="#FFFFFF" filter="url(#f14fdqnsvi0z8b)" height="88.2656" style="stroke:#A80036;stroke-width:1.0;" width="10" x="1264" y="730.5547"/><rect fill="#FFFFFF" filter="url(#f14fdqnsvi0z8b)" height="58.2656" style="stroke:#A80036;stroke-width:1.0;" width="10" x="1264" y="1453.6797"/><rect fill="#FFFFFF" filter="url(#f14fdqnsvi0z8b)" height="59.1328" style="stroke:#A80036;stroke-width:1.0;" width="10" x="1435" y="290.0938"/><rect fill="#FFFFFF" filter="url(#f14fdqnsvi0z8b)" height="59.1328" style="stroke:#A80036;stroke-width:1.0;" width="10" x="1435" y="524.8906"/><rect fill="#FFFFFF" filter="url(#f14fdqnsvi0z8b)" height="59.1328" style="stroke:#A80036;stroke-width:1.0;" width="10" x="1435" y="759.6875"/><rect fill="#FFFFFF" filter="url(#f14fdqnsvi0z8b)" height="29.1328" style="stroke:#A80036;stroke-width:1.0;" width="10" x="1435" y="1482.8125"/><rect fill="#FFFFFF" filter="url(#f14fdqnsvi0z8b)" height="30" style="stroke:#A80036;stroke-width:1.0;" width="10" x="1618" y="319.2266"/><rect fill="#FFFFFF" filter="url(#f14fdqnsvi0z8b)" height="30" style="stroke:#A80036;stroke-width:1.0;" width="10" x="1618" y="378.3594"/><rect fill="#FFFFFF" filter="url(#f14fdqnsvi0z8b)" height="30" style="stroke:#A80036;stroke-width:1.0;" width="10" x="1787.5" y="554.0234"/><rect fill="#FFFFFF" filter="url(#f14fdqnsvi0z8b)" height="30" style="stroke:#A80036;stroke-width:1.0;" width="10" x="1787.5" y="613.1563"/><rect fill="#FFFFFF" filter="url(#f14fdqnsvi0z8b)" height="74.3984" style="stroke:#A80036;stroke-width:1.0;" width="10" x="1975" y="936.2188"/><rect fill="#FFFFFF" filter="url(#f14fdqnsvi0z8b)" height="30" style="stroke:#A80036;stroke-width:1.0;" width="10" x="2173" y="788.8203"/><rect fill="#FFFFFF" filter="url(#f14fdqnsvi0z8b)" height="30" style="stroke:#A80036;stroke-width:1.0;" width="10" x="2173" y="847.9531"/><rect fill="#FFFFFF" filter="url(#f14fdqnsvi0z8b)" height="30" style="stroke:#A80036;stroke-width:1.0;" width="10" x="2544.5" y="1039.75"/><rect fill="#FFFFFF" filter="url(#f14fdqnsvi0z8b)" height="30" style="stroke:#A80036;stroke-width:1.0;" width="10" x="2708" y="1098.8828"/><rect fill="#FFFFFF" filter="url(#f14fdqnsvi0z8b)" height="30" style="stroke:#A80036;stroke-width:1.0;" width="10" x="2864" y="1158.0156"/><rect fill="#FFFFFF" filter="url(#f14fdqnsvi0z8b)" height="30" style="stroke:#A80036;stroke-width:1.0;" width="10" x="3052.5" y="1217.1484"/><rect fill="#FFFFFF" filter="url(#f14fdqnsvi0z8b)" height="30" style="stroke:#A80036;stroke-width:1.0;" width="10" x="3222" y="1335.4141"/><rect fill="#FFFFFF" filter="url(#f14fdqnsvi0z8b)" height="30" style="stroke:#A80036;stroke-width:1.0;" width="10" x="3338.5" y="1394.5469"/><rect fill="#FFFFFF" filter="url(#f14fdqnsvi0z8b)" height="29.1328" style="stroke:#A80036;stroke-width:1.0;" width="10" x="3475" y="1511.9453"/><polygon fill="#A80036" points="856,67.4297,866,71.4297,856,75.4297,860,71.4297" style="stroke:#A80036;stroke-width:1.0;"/><line style="stroke:#A80036;stroke-width:1.0;" x1="90" x2="862" y1="71.4297" y2="71.4297"/><text fill="#000000" font-family="sans-serif" font-size="13" lengthAdjust="spacing" textLength="41" x="97" y="66.3638">create</text><polygon fill="#A80036" points="1089,126.5625,1099,130.5625,1089,134.5625,1093,130.5625" style="stroke:#A80036;stroke-width:1.0;"/><line style="stroke:#A80036;stroke-width:1.0;" x1="90" x2="1095" y1="130.5625" y2="130.5625"/><text fill="#000000" font-family="sans-serif" font-size="13" lengthAdjust="spacing" textLength="41" x="97" y="125.4966">create</text><line style="stroke:#A80036;stroke-width:1.0;" x1="90" x2="132" y1="189.6953" y2="189.6953"/><line style="stroke:#A80036;stroke-width:1.0;" x1="132" x2="132" y1="189.6953" y2="202.6953"/><line style="stroke:#A80036;stroke-width:1.0;" x1="91" x2="132" y1="202.6953" y2="202.6953"/><polygon fill="#A80036" points="101,198.6953,91,202.6953,101,206.6953,97,202.6953" style="stroke:#A80036;stroke-width:1.0;"/><text fill="#000000" font-family="sans-serif" font-size="13" lengthAdjust="spacing" textLength="61" x="97" y="184.6294">doShow()</text><polygon fill="#A80036" points="856,227.8281,866,231.8281,856,235.8281,860,231.8281" style="stroke:#A80036;stroke-width:1.0;"/><line style="stroke:#A80036;stroke-width:1.0;" x1="90" x2="862" y1="231.8281" y2="231.8281"/><text fill="#000000" font-family="sans-serif" font-size="13" lengthAdjust="spacing" textLength="164" x="97" y="226.7622">colaboradoresDisponiveis</text><polygon fill="#A80036" points="1252,256.9609,1262,260.9609,1252,264.9609,1256,260.9609" style="stroke:#A80036;stroke-width:1.0;"/><line style="stroke:#A80036;stroke-width:1.0;" x1="878" x2="1258" y1="260.9609" y2="260.9609"/><text fill="#000000" font-family="sans-serif" font-size="13" lengthAdjust="spacing" textLength="85" x="885" y="255.895">repositories()</text><polygon fill="#A80036" points="1423,286.0938,1433,290.0938,1423,294.0938,1427,290.0938" style="stroke:#A80036;stroke-width:1.0;"/><line style="stroke:#A80036;stroke-width:1.0;" x1="1274" x2="1429" y1="290.0938" y2="290.0938"/><text fill="#000000" font-family="sans-serif" font-size="13" lengthAdjust="spacing" textLength="41" x="1281" y="285.0278">create</text><polygon fill="#A80036" points="1606,315.2266,1616,319.2266,1606,323.2266,1610,319.2266" style="stroke:#A80036;stroke-width:1.0;"/><line style="stroke:#A80036;stroke-width:1.0;" x1="1445" x2="1612" y1="319.2266" y2="319.2266"/><text fill="#000000" font-family="sans-serif" font-size="13" lengthAdjust="spacing" textLength="41" x="1452" y="314.1606">create</text><polygon fill="#A80036" points="1606,374.3594,1616,378.3594,1606,382.3594,1610,378.3594" style="stroke:#A80036;stroke-width:1.0;"/><line style="stroke:#A80036;stroke-width:1.0;" x1="878" x2="1612" y1="378.3594" y2="378.3594"/><text fill="#000000" font-family="sans-serif" font-size="13" lengthAdjust="spacing" textLength="107" x="885" y="373.2935">allColaboradores</text><polygon fill="#A80036" points="101,433.4922,91,437.4922,101,441.4922,97,437.4922" style="stroke:#A80036;stroke-width:1.0;"/><line style="stroke:#A80036;stroke-width:1.0;stroke-dasharray:2.0,2.0;" x1="95" x2="872" y1="437.4922" y2="437.4922"/><text fill="#000000" font-family="sans-serif" font-size="13" lengthAdjust="spacing" textLength="144" x="107" y="432.4263">selectorColaboradores</text><polygon fill="#A80036" points="856,462.625,866,466.625,856,470.625,860,466.625" style="stroke:#A80036;stroke-width:1.0;"/><line style="stroke:#A80036;stroke-width:1.0;" x1="90" x2="862" y1="466.625" y2="466.625"/><text fill="#000000" font-family="sans-serif" font-size="13" lengthAdjust="spacing" textLength="140" x="97" y="461.5591">NiveisSLADisponoveis</text><polygon fill="#A80036" points="1252,491.7578,1262,495.7578,1252,499.7578,1256,495.7578" style="stroke:#A80036;stroke-width:1.0;"/><line style="stroke:#A80036;stroke-width:1.0;" x1="878" x2="1258" y1="495.7578" y2="495.7578"/><text fill="#000000" font-family="sans-serif" font-size="13" lengthAdjust="spacing" textLength="85" x="885" y="490.6919">repositories()</text><polygon fill="#A80036" points="1423,520.8906,1433,524.8906,1423,528.8906,1427,524.8906" style="stroke:#A80036;stroke-width:1.0;"/><line style="stroke:#A80036;stroke-width:1.0;" x1="1274" x2="1429" y1="524.8906" y2="524.8906"/><text fill="#000000" font-family="sans-serif" font-size="13" lengthAdjust="spacing" textLength="41" x="1281" y="519.8247">create</text><polygon fill="#A80036" points="1775.5,550.0234,1785.5,554.0234,1775.5,558.0234,1779.5,554.0234" style="stroke:#A80036;stroke-width:1.0;"/><line style="stroke:#A80036;stroke-width:1.0;" x1="1445" x2="1781.5" y1="554.0234" y2="554.0234"/><text fill="#000000" font-family="sans-serif" font-size="13" lengthAdjust="spacing" textLength="41" x="1452" y="548.9575">create</text><polygon fill="#A80036" points="1775.5,609.1563,1785.5,613.1563,1775.5,617.1563,1779.5,613.1563" style="stroke:#A80036;stroke-width:1.0;"/><line style="stroke:#A80036;stroke-width:1.0;" x1="878" x2="1781.5" y1="613.1563" y2="613.1563"/><text fill="#000000" font-family="sans-serif" font-size="13" lengthAdjust="spacing" textLength="76" x="885" y="608.0903">allNiveisSLA</text><polygon fill="#A80036" points="101,668.2891,91,672.2891,101,676.2891,97,672.2891" style="stroke:#A80036;stroke-width:1.0;"/><line style="stroke:#A80036;stroke-width:1.0;stroke-dasharray:2.0,2.0;" x1="95" x2="872" y1="672.2891" y2="672.2891"/><text fill="#000000" font-family="sans-serif" font-size="13" lengthAdjust="spacing" textLength="113" x="107" y="667.2231">selectorNiveisSLA</text><polygon fill="#A80036" points="856,697.4219,866,701.4219,856,705.4219,860,701.4219" style="stroke:#A80036;stroke-width:1.0;"/><line style="stroke:#A80036;stroke-width:1.0;" x1="90" x2="862" y1="701.4219" y2="701.4219"/><text fill="#000000" font-family="sans-serif" font-size="13" lengthAdjust="spacing" textLength="123" x="97" y="696.356">equipasDisponiveis</text><polygon fill="#A80036" points="1252,726.5547,1262,730.5547,1252,734.5547,1256,730.5547" style="stroke:#A80036;stroke-width:1.0;"/><line style="stroke:#A80036;stroke-width:1.0;" x1="878" x2="1258" y1="730.5547" y2="730.5547"/><text fill="#000000" font-family="sans-serif" font-size="13" lengthAdjust="spacing" textLength="85" x="885" y="725.4888">repositories()</text><polygon fill="#A80036" points="1423,755.6875,1433,759.6875,1423,763.6875,1427,759.6875" style="stroke:#A80036;stroke-width:1.0;"/><line style="stroke:#A80036;stroke-width:1.0;" x1="1274" x2="1429" y1="759.6875" y2="759.6875"/><text fill="#000000" font-family="sans-serif" font-size="13" lengthAdjust="spacing" textLength="41" x="1281" y="754.6216">create</text><polygon fill="#A80036" points="2161,784.8203,2171,788.8203,2161,792.8203,2165,788.8203" style="stroke:#A80036;stroke-width:1.0;"/><line style="stroke:#A80036;stroke-width:1.0;" x1="1445" x2="2167" y1="788.8203" y2="788.8203"/><text fill="#000000" font-family="sans-serif" font-size="13" lengthAdjust="spacing" textLength="41" x="1452" y="783.7544">create</text><polygon fill="#A80036" points="2161,843.9531,2171,847.9531,2161,851.9531,2165,847.9531" style="stroke:#A80036;stroke-width:1.0;"/><line style="stroke:#A80036;stroke-width:1.0;" x1="878" x2="2167" y1="847.9531" y2="847.9531"/><text fill="#000000" font-family="sans-serif" font-size="13" lengthAdjust="spacing" textLength="104" x="885" y="842.8872">allEquipasAtivas</text><polygon fill="#A80036" points="101,903.0859,91,907.0859,101,911.0859,97,907.0859" style="stroke:#A80036;stroke-width:1.0;"/><line style="stroke:#A80036;stroke-width:1.0;stroke-dasharray:2.0,2.0;" x1="95" x2="872" y1="907.0859" y2="907.0859"/><text fill="#000000" font-family="sans-serif" font-size="13" lengthAdjust="spacing" textLength="86" x="107" y="902.02">todasEquipas</text><polygon fill="#A80036" points="1963,932.2188,1973,936.2188,1963,940.2188,1967,936.2188" style="stroke:#A80036;stroke-width:1.0;"/><line style="stroke:#A80036;stroke-width:1.0;" x1="90" x2="1969" y1="936.2188" y2="936.2188"/><text fill="#000000" font-family="sans-serif" font-size="13" lengthAdjust="spacing" textLength="276" x="97" y="931.1528">EquipasEmCatalogoSettings(todasEquipas)</text><rect fill="#FFFFFF" filter="url(#f14fdqnsvi0z8b)" height="40.2656" style="stroke:#000000;stroke-width:2.0;" width="276" x="1864" y="944.2188"/><polygon fill="#EEEEEE" points="1864,944.2188,1932,944.2188,1932,951.2188,1922,961.2188,1864,961.2188,1864,944.2188" style="stroke:#000000;stroke-width:2.0;"/><text fill="#000000" font-family="sans-serif" font-size="13" font-weight="bold" lengthAdjust="spacing" textLength="23" x="1877" y="958.2856">ref</text><text fill="#000000" font-family="sans-serif" font-size="13" lengthAdjust="spacing" textLength="268" x="1870" y="977.2856">US_2001_EquipasEmCatalogoSettings_DS</text><polygon fill="#A80036" points="856,1006.6172,866,1010.6172,856,1014.6172,860,1010.6172" style="stroke:#A80036;stroke-width:1.0;"/><line style="stroke:#A80036;stroke-width:1.0;" x1="90" x2="862" y1="1010.6172" y2="1010.6172"/><text fill="#000000" font-family="sans-serif" font-size="13" lengthAdjust="spacing" textLength="759" x="97" y="1005.5513">registarCatalogo(idCatalogo, responsavelCat, nivelSLA, listEquipasComAcesso, titulo, descBreve, descCompleta,icone)</text><polygon fill="#A80036" points="2532.5,1035.75,2542.5,1039.75,2532.5,1043.75,2536.5,1039.75" style="stroke:#A80036;stroke-width:1.0;"/><line style="stroke:#A80036;stroke-width:1.0;" x1="878" x2="2538.5" y1="1039.75" y2="1039.75"/><text fill="#000000" font-family="sans-serif" font-size="13" lengthAdjust="spacing" textLength="233" x="885" y="1034.6841">id = create(strIdentificadorCatalogo)</text><polygon fill="#A80036" points="2696,1094.8828,2706,1098.8828,2696,1102.8828,2700,1098.8828" style="stroke:#A80036;stroke-width:1.0;"/><line style="stroke:#A80036;stroke-width:1.0;" x1="878" x2="2702" y1="1098.8828" y2="1098.8828"/><text fill="#000000" font-family="sans-serif" font-size="13" lengthAdjust="spacing" textLength="186" x="885" y="1093.8169">ti = create(strTituloCatalogo)</text><polygon fill="#A80036" points="2852,1154.0156,2862,1158.0156,2852,1162.0156,2856,1158.0156" style="stroke:#A80036;stroke-width:1.0;"/><line style="stroke:#A80036;stroke-width:1.0;" x1="878" x2="2858" y1="1158.0156" y2="1158.0156"/><text fill="#000000" font-family="sans-serif" font-size="13" lengthAdjust="spacing" textLength="250" x="885" y="1152.9497">descB = create(strDescBreveCatalogo)</text><polygon fill="#A80036" points="3040.5,1213.1484,3050.5,1217.1484,3040.5,1221.1484,3044.5,1217.1484" style="stroke:#A80036;stroke-width:1.0;"/><line style="stroke:#A80036;stroke-width:1.0;" x1="878" x2="3046.5" y1="1217.1484" y2="1217.1484"/><text fill="#000000" font-family="sans-serif" font-size="13" lengthAdjust="spacing" textLength="252" x="885" y="1212.0825">descC = create(strDescCompCatalogo)</text><polygon fill="#A80036" points="1089,1272.2813,1099,1276.2813,1089,1280.2813,1093,1276.2813" style="stroke:#A80036;stroke-width:1.0;"/><line style="stroke:#A80036;stroke-width:1.0;" x1="878" x2="1095" y1="1276.2813" y2="1276.2813"/><text fill="#000000" font-family="sans-serif" font-size="13" lengthAdjust="spacing" textLength="204" x="885" y="1271.2153">fileConverter(strLocationImage)</text><polygon fill="#A80036" points="3210,1331.4141,3220,1335.4141,3210,1339.4141,3214,1335.4141" style="stroke:#A80036;stroke-width:1.0;"/><line style="stroke:#A80036;stroke-width:1.0;" x1="878" x2="3216" y1="1335.4141" y2="1335.4141"/><text fill="#000000" font-family="sans-serif" font-size="13" lengthAdjust="spacing" textLength="159" x="885" y="1330.3481">icone = create(iconeCat)</text><polygon fill="#A80036" points="3326.5,1390.5469,3336.5,1394.5469,3326.5,1398.5469,3330.5,1394.5469" style="stroke:#A80036;stroke-width:1.0;"/><line style="stroke:#A80036;stroke-width:1.0;" x1="878" x2="3332.5" y1="1394.5469" y2="1394.5469"/><text fill="#000000" font-family="sans-serif" font-size="13" lengthAdjust="spacing" textLength="796" x="885" y="1389.481">newCatalogo = create(idCatalogo, responsavelCat, nivelSLA, listEquipasComAcesso, titulo, descBreve, descCompleta,icone)</text><polygon fill="#A80036" points="1252,1449.6797,1262,1453.6797,1252,1457.6797,1256,1453.6797" style="stroke:#A80036;stroke-width:1.0;"/><line style="stroke:#A80036;stroke-width:1.0;" x1="878" x2="1258" y1="1453.6797" y2="1453.6797"/><text fill="#000000" font-family="sans-serif" font-size="13" lengthAdjust="spacing" textLength="85" x="885" y="1448.6138">repositories()</text><polygon fill="#A80036" points="1423,1478.8125,1433,1482.8125,1423,1486.8125,1427,1482.8125" style="stroke:#A80036;stroke-width:1.0;"/><line style="stroke:#A80036;stroke-width:1.0;" x1="1274" x2="1429" y1="1482.8125" y2="1482.8125"/><text fill="#000000" font-family="sans-serif" font-size="13" lengthAdjust="spacing" textLength="41" x="1281" y="1477.7466">create</text><polygon fill="#A80036" points="3463,1507.9453,3473,1511.9453,3463,1515.9453,3467,1511.9453" style="stroke:#A80036;stroke-width:1.0;"/><line style="stroke:#A80036;stroke-width:1.0;" x1="1440" x2="3469" y1="1511.9453" y2="1511.9453"/><text fill="#000000" font-family="sans-serif" font-size="13" lengthAdjust="spacing" textLength="41" x="1447" y="1506.8794">create</text><polygon fill="#A80036" points="3468,1537.0781,3478,1541.0781,3468,1545.0781,3472,1541.0781" style="stroke:#A80036;stroke-width:1.0;"/><line style="stroke:#A80036;stroke-width:1.0;" x1="873" x2="3474" y1="1541.0781" y2="1541.0781"/><text fill="#000000" font-family="sans-serif" font-size="13" lengthAdjust="spacing" textLength="125" x="880" y="1536.0122">save(newCatalogo)</text><!--MD5=[afff8b3ad3c69b156dbbcfc8e238b9e1]
@startuml
participant ":RegistarCatalogoUI" as ui
		participant ":RegistarCatalogoController" as ctrl
		participant ":ImageController" as imCtrl
		participant ":PersistenceContext" as pc
		participant ":RepositoryFactory" as rf
		participant ":ColaboradorRepository" as repoC
		participant ":SLARepository" as repoS
		participant ":EquipasEmCatalogoSettings" as equipaS
		participant ":EquipaRepository" as repoE
		participant ":EquipasComAcessoList" as listE
		participant ":IdentificadorCatalogo" as id
	    participant ":TituloCatalogo" as ti 
		participant ":DescBreveCatalogo" as descB 
		participant ":DescCompletaCatalogo" as descC 
		participant ":IconeCatalogo" as ic
		participant ":Catalogo" as cat
		participant ":CatalogoRepository" as repo

        activate ui
		ui->ctrl:create
		activate ctrl
		deactivate ctrl
		ui->imCtrl:create
		activate imCtrl
		deactivate imCtrl
		
		ui->ui:doShow()
		
		ui->ctrl:colaboradoresDisponiveis
		activate ctrl
		ctrl->pc:repositories()
		activate pc
		pc->rf:create
		activate rf
		rf->repoC:create
		activate repoC
		deactivate repoC
		deactivate rf
		deactivate pc
		ctrl->repoC:allColaboradores
		activate repoC
		deactivate repoC
		ctrl- ->ui:selectorColaboradores
		deactivate ctrl


		ui->ctrl:NiveisSLADisponoveis
		activate ctrl
		ctrl->pc:repositories()
		activate pc
		pc->rf:create
		activate rf
		rf->repoS:create
		activate repoS
		deactivate repoS
		deactivate rf
		deactivate pc
		ctrl->repoS:allNiveisSLA
		activate repoS
		deactivate repoS
		ctrl- ->ui:selectorNiveisSLA
		deactivate ctrl

		ui->ctrl:equipasDisponiveis
		activate ctrl
		ctrl->pc:repositories()
		activate pc
		pc->rf:create
		activate rf
		rf->repoE:create
		activate repoE
		deactivate repoE
		deactivate rf
		deactivate pc
		ctrl->repoE:allEquipasAtivas
		activate repoE
		deactivate repoE
		ctrl- ->ui:todasEquipas
		deactivate ctrl
		
	    
		ui->equipaS:EquipasEmCatalogoSettings(todasEquipas)
		activate equipaS
		ref over equipaS : US_2001_EquipasEmCatalogoSettings_DS
		
        
    	ui->ctrl:registarCatalogo(idCatalogo, responsavelCat, nivelSLA, listEquipasComAcesso, titulo, descBreve, descCompleta,icone)
        deactivate equipaS
        activate ctrl
        ctrl->id:id = create(strIdentificadorCatalogo)
		activate id
		deactivate id
        ctrl->ti:ti = create(strTituloCatalogo)
		activate ti
		deactivate ti
		ctrl->descB:descB = create(strDescBreveCatalogo)
		activate descB
		deactivate descB
		ctrl->descC:descC = create(strDescCompCatalogo)
		activate descC
		deactivate descC
		ctrl->imCtrl: fileConverter(strLocationImage)
		activate imCtrl
		deactivate imCtrl
		ctrl->ic:icone = create(iconeCat)
		activate ic
		deactivate ic

		ctrl->cat:newCatalogo = create(idCatalogo, responsavelCat, nivelSLA, listEquipasComAcesso, titulo, descBreve, descCompleta,icone)
        activate cat
		deactivate cat
		ctrl->pc:repositories()
		activate pc
		pc->rf:create
		activate rf
		rf->repo:create
		deactivate rf
		deactivate pc
		activate repo
		ctrl->repo:save(newCatalogo)
		deactivate repo
		deactivate ctrl
		deactivate ui
@enduml

PlantUML version 1.2021.5beta3(Unknown compile time)
(GPL source distribution)
Java Runtime: Java(TM) SE Runtime Environment
JVM: Java HotSpot(TM) 64-Bit Server VM
Default Encoding: UTF-8
Language: en
Country: US
--></g></svg>